<?xml version="1.0" encoding="UTF-8"?><svg id="Layer_2" xmlns="http://www.w3.org/2000/svg" width="65" height="65" viewBox="0 0 65 65"><defs><style>.cls-1{fill:#cffa72;stroke-width:0px;}</style></defs><g id="Layer_2-2"><path class="cls-1" d="m32.5,64.5C14.86,64.5.5,50.14.5,32.5S14.86.5,32.5.5s32,14.35,32,32-14.35,32-32,32Z"/><path class="cls-1" d="m32.5,1c17.37,0,31.5,14.13,31.5,31.5s-14.13,31.5-31.5,31.5S1,49.87,1,32.5,15.13,1,32.5,1m0-1C14.55,0,0,14.55,0,32.5s14.55,32.5,32.5,32.5,32.5-14.55,32.5-32.5S50.45,0,32.5,0h0Z"/></g></svg>