<svg width="359" height="805" viewBox="0 0 359 805" fill="none" xmlns="http://www.w3.org/2000/svg">
<path d="M94.208 763.46V759.4H102.972V763.46H94.208ZM94.208 771.132V767.324H102.692V771.132H94.208ZM91.072 759.4H95.608V779H91.072V759.4ZM104.525 772.56C104.525 771.197 104.842 770.012 105.477 769.004C106.112 767.996 106.989 767.212 108.109 766.652C109.229 766.092 110.489 765.812 111.889 765.812C113.289 765.812 114.54 766.092 115.641 766.652C116.761 767.212 117.638 767.996 118.273 769.004C118.926 770.012 119.253 771.197 119.253 772.56C119.253 773.904 118.926 775.08 118.273 776.088C117.638 777.096 116.761 777.88 115.641 778.44C114.54 779 113.289 779.28 111.889 779.28C110.489 779.28 109.229 779 108.109 778.44C106.989 777.88 106.112 777.096 105.477 776.088C104.842 775.08 104.525 773.904 104.525 772.56ZM108.865 772.56C108.865 773.232 109.005 773.811 109.285 774.296C109.565 774.763 109.929 775.127 110.377 775.388C110.825 775.649 111.329 775.78 111.889 775.78C112.43 775.78 112.925 775.649 113.373 775.388C113.84 775.127 114.204 774.763 114.465 774.296C114.745 773.811 114.885 773.232 114.885 772.56C114.885 771.888 114.745 771.309 114.465 770.824C114.204 770.339 113.84 769.965 113.373 769.704C112.925 769.443 112.43 769.312 111.889 769.312C111.329 769.312 110.825 769.443 110.377 769.704C109.929 769.965 109.565 770.339 109.285 770.824C109.005 771.309 108.865 771.888 108.865 772.56ZM121.041 772.56C121.041 771.197 121.358 770.012 121.993 769.004C122.627 767.996 123.505 767.212 124.625 766.652C125.745 766.092 127.005 765.812 128.405 765.812C129.805 765.812 131.055 766.092 132.157 766.652C133.277 767.212 134.154 767.996 134.789 769.004C135.442 770.012 135.769 771.197 135.769 772.56C135.769 773.904 135.442 775.08 134.789 776.088C134.154 777.096 133.277 777.88 132.157 778.44C131.055 779 129.805 779.28 128.405 779.28C127.005 779.28 125.745 779 124.625 778.44C123.505 777.88 122.627 777.096 121.993 776.088C121.358 775.08 121.041 773.904 121.041 772.56ZM125.381 772.56C125.381 773.232 125.521 773.811 125.801 774.296C126.081 774.763 126.445 775.127 126.893 775.388C127.341 775.649 127.845 775.78 128.405 775.78C128.946 775.78 129.441 775.649 129.889 775.388C130.355 775.127 130.719 774.763 130.981 774.296C131.261 773.811 131.401 773.232 131.401 772.56C131.401 771.888 131.261 771.309 130.981 770.824C130.719 770.339 130.355 769.965 129.889 769.704C129.441 769.443 128.946 769.312 128.405 769.312C127.845 769.312 127.341 769.443 126.893 769.704C126.445 769.965 126.081 770.339 125.801 770.824C125.521 771.309 125.381 771.888 125.381 772.56ZM148.084 757.16H152.312V779H148.084V757.16ZM137.556 772.56C137.556 771.104 137.845 769.881 138.424 768.892C139.021 767.903 139.787 767.147 140.72 766.624C141.653 766.101 142.643 765.84 143.688 765.84C144.771 765.84 145.723 766.111 146.544 766.652C147.384 767.193 148.047 767.968 148.532 768.976C149.017 769.965 149.26 771.16 149.26 772.56C149.26 773.941 149.017 775.136 148.532 776.144C148.047 777.152 147.384 777.927 146.544 778.468C145.723 779.009 144.771 779.28 143.688 779.28C142.643 779.28 141.653 779.019 140.72 778.496C139.787 777.973 139.021 777.217 138.424 776.228C137.845 775.22 137.556 773.997 137.556 772.56ZM142.008 772.56C142.008 773.232 142.148 773.82 142.428 774.324C142.708 774.809 143.081 775.192 143.548 775.472C144.015 775.733 144.528 775.864 145.088 775.864C145.573 775.864 146.04 775.733 146.488 775.472C146.955 775.211 147.337 774.837 147.636 774.352C147.935 773.848 148.084 773.251 148.084 772.56C148.084 771.869 147.935 771.281 147.636 770.796C147.337 770.292 146.955 769.909 146.488 769.648C146.04 769.387 145.573 769.256 145.088 769.256C144.528 769.256 144.015 769.396 143.548 769.676C143.081 769.937 142.708 770.32 142.428 770.824C142.148 771.309 142.008 771.888 142.008 772.56ZM168.44 769.2C168.44 770.395 168.711 771.431 169.252 772.308C169.793 773.167 170.503 773.82 171.38 774.268C172.276 774.716 173.256 774.94 174.32 774.94C175.253 774.94 176.075 774.819 176.784 774.576C177.493 774.333 178.128 774.016 178.688 773.624C179.248 773.232 179.743 772.812 180.172 772.364V777.46C179.388 778.076 178.529 778.561 177.596 778.916C176.663 779.271 175.477 779.448 174.04 779.448C172.472 779.448 171.025 779.205 169.7 778.72C168.375 778.235 167.236 777.535 166.284 776.62C165.332 775.705 164.595 774.623 164.072 773.372C163.549 772.121 163.288 770.731 163.288 769.2C163.288 767.669 163.549 766.279 164.072 765.028C164.595 763.777 165.332 762.695 166.284 761.78C167.236 760.865 168.375 760.165 169.7 759.68C171.025 759.195 172.472 758.952 174.04 758.952C175.477 758.952 176.663 759.129 177.596 759.484C178.529 759.839 179.388 760.324 180.172 760.94V766.036C179.743 765.588 179.248 765.168 178.688 764.776C178.128 764.365 177.493 764.048 176.784 763.824C176.075 763.581 175.253 763.46 174.32 763.46C173.256 763.46 172.276 763.684 171.38 764.132C170.503 764.58 169.793 765.233 169.252 766.092C168.711 766.951 168.44 767.987 168.44 769.2ZM182.865 772.56C182.865 771.197 183.182 770.012 183.817 769.004C184.451 767.996 185.329 767.212 186.449 766.652C187.569 766.092 188.829 765.812 190.229 765.812C191.629 765.812 192.879 766.092 193.981 766.652C195.101 767.212 195.978 767.996 196.613 769.004C197.266 770.012 197.593 771.197 197.593 772.56C197.593 773.904 197.266 775.08 196.613 776.088C195.978 777.096 195.101 777.88 193.981 778.44C192.879 779 191.629 779.28 190.229 779.28C188.829 779.28 187.569 779 186.449 778.44C185.329 777.88 184.451 777.096 183.817 776.088C183.182 775.08 182.865 773.904 182.865 772.56ZM187.205 772.56C187.205 773.232 187.345 773.811 187.625 774.296C187.905 774.763 188.269 775.127 188.717 775.388C189.165 775.649 189.669 775.78 190.229 775.78C190.77 775.78 191.265 775.649 191.713 775.388C192.179 775.127 192.543 774.763 192.805 774.296C193.085 773.811 193.225 773.232 193.225 772.56C193.225 771.888 193.085 771.309 192.805 770.824C192.543 770.339 192.179 769.965 191.713 769.704C191.265 769.443 190.77 769.312 190.229 769.312C189.669 769.312 189.165 769.443 188.717 769.704C188.269 769.965 187.905 770.339 187.625 770.824C187.345 771.309 187.205 771.888 187.205 772.56ZM204.56 773.96C204.56 774.707 204.7 775.295 204.98 775.724C205.26 776.135 205.746 776.34 206.436 776.34C206.903 776.34 207.295 776.247 207.612 776.06C207.948 775.873 208.21 775.603 208.396 775.248C208.583 774.893 208.676 774.464 208.676 773.96V766.12H212.904V779H208.676V777.068C208.284 777.759 207.771 778.309 207.136 778.72C206.502 779.112 205.708 779.308 204.756 779.308C203.151 779.308 201.975 778.879 201.228 778.02C200.5 777.143 200.136 775.939 200.136 774.408V766.12H204.56V773.96ZM220.414 766.12V779H216.242V766.12H220.414ZM224.138 770.488C223.914 770.264 223.671 770.087 223.41 769.956C223.167 769.825 222.859 769.76 222.486 769.76C222.075 769.76 221.711 769.872 221.394 770.096C221.077 770.32 220.834 770.647 220.666 771.076C220.498 771.505 220.414 772.028 220.414 772.644L219.406 771.16C219.406 770.133 219.602 769.219 219.994 768.416C220.405 767.613 220.937 766.979 221.59 766.512C222.243 766.045 222.925 765.812 223.634 765.812C224.101 765.812 224.549 765.905 224.978 766.092C225.407 766.279 225.734 766.54 225.958 766.876L224.138 770.488ZM226.242 766.12H234.866V769.62H226.242V766.12ZM228.51 761.64H232.57V779H228.51V761.64Z" fill="white"/>
<path d="M64.64 577.5C54.8 563.76 38.5 563.5 36.64 563.5C23.86 563.52 12.67 570.64 6.63998 580.5C0.99998 589.75 1.33998 599.04 1.63998 602.5C24.64 602.17 47.64 601.83 70.64 601.5C70.97 598.7 71.94 587.69 64.64 577.5ZM15.88 593.64C15.88 593.49 15.89 593.34 15.9 593.19C15.87 593.19 15.97 593.38 16.11 593.62C15.97 593.62 15.88 593.63 15.88 593.63V593.64ZM57.23 592.55C57.24 592.75 57.26 592.96 57.26 593.16C57.26 593.16 57.07 593.7 56.9 594.09C56.58 594.13 55.73 594.17 54.57 594.19C54.44 594.21 54.31 594.22 54.16 594.22C54.12 594.22 54.07 594.21 54.03 594.2C50.98 594.26 46.36 594.29 43.84 594.3C42.98 594.34 41.21 594.39 40.81 594.4C37.39 594.48 33.97 594.55 30.55 594.55C27.87 594.55 32.55 594.42 33.24 594.4C36.17 594.33 39.11 594.28 42.05 594.26C42.05 594.22 42.05 594.18 42.05 594.14C40.59 594.14 39.27 594.14 39.04 594.14C39.02 594.14 38.61 594.14 38.01 594.14C37.32 594.15 36.62 594.17 35.93 594.18C34.16 594.21 32.39 594.24 30.63 594.25C30.97 594.25 28.44 594.22 28.43 594.24C28.46 594.17 28.48 594.09 28.51 594.02C26.52 594.03 24.16 594.02 23.84 594.02C23.8 594.02 21.91 594.02 20.04 594.02C20.07 594 20.1 593.98 20.13 593.96C18.9 593.97 17.94 593.97 17.94 593.95C17.94 593.95 17.94 593.93 17.94 593.92C17.37 593.92 16.78 593.92 16.78 593.91C16.79 593.8 16.81 593.7 16.83 593.59C16.7 593.59 16.58 593.59 16.48 593.6C16.26 592.91 15.93 592.08 15.99 591.79C15.45 589.11 16.82 584.8 18.91 582.22C19.29 581.25 19.9 580.39 20.69 579.69C21.08 579.04 21.58 578.48 22.2 578.03C22.78 577.44 23.45 577.01 24.22 576.71C25.07 575.87 26.11 575.2 27.21 574.85C28.87 574.32 30.63 574.01 32.38 573.81C32.72 573.73 33.07 573.63 33.44 573.6C39.73 572.96 44.92 573.59 45.65 574.5L47.65 575.5C49.23 575.96 49.26 576.67 50.71 577.66C51.92 578.48 52.94 579.5 53.66 580.65C56.15 582.68 57.81 588 57.13 591.34C57.17 591.72 57.21 592.09 57.23 592.47C57.27 592.47 57.31 592.47 57.35 592.47C58.71 592.47 58.18 592.5 57.23 592.54V592.55Z" fill="white" stroke="white" stroke-miterlimit="10"/>
<path d="M16.56 593.93C16.56 593.93 16.58 593.93 16.59 593.93C16.58 593.93 16.57 593.93 16.56 593.93Z" fill="white" stroke="white" stroke-miterlimit="10"/>
<path d="M56.95 594.07C57 593.99 57.03 593.96 57.03 594.04C57.03 594.04 57 594.06 56.95 594.07Z" fill="white" stroke="white" stroke-miterlimit="10"/>
<path d="M109.667 492.572L113.475 481.4H119.103L110.619 502.148L104.291 490.332L97.9905 502.148L89.5065 481.4H95.1065L98.9705 492.572L104.291 480.42L109.667 492.572ZM121.366 496.968C121.366 497.304 121.45 497.593 121.618 497.836C121.786 498.06 122.01 498.237 122.29 498.368C122.57 498.48 122.878 498.536 123.214 498.536C123.699 498.536 124.147 498.433 124.558 498.228C124.968 498.023 125.304 497.715 125.566 497.304C125.827 496.893 125.958 496.389 125.958 495.792L126.406 497.472C126.406 498.293 126.182 498.993 125.734 499.572C125.286 500.132 124.707 500.561 123.998 500.86C123.288 501.14 122.523 501.28 121.702 501.28C120.88 501.28 120.115 501.131 119.406 500.832C118.715 500.515 118.155 500.048 117.726 499.432C117.315 498.816 117.11 498.069 117.11 497.192C117.11 495.96 117.548 494.989 118.426 494.28C119.303 493.552 120.544 493.188 122.15 493.188C122.934 493.188 123.634 493.263 124.25 493.412C124.884 493.561 125.426 493.748 125.874 493.972C126.322 494.196 126.658 494.429 126.882 494.672V496.548C126.434 496.212 125.911 495.96 125.314 495.792C124.735 495.605 124.119 495.512 123.466 495.512C122.962 495.512 122.56 495.568 122.262 495.68C121.963 495.792 121.739 495.96 121.59 496.184C121.44 496.389 121.366 496.651 121.366 496.968ZM119.49 492.068L118.062 489.24C118.79 488.885 119.667 488.549 120.694 488.232C121.72 487.915 122.84 487.756 124.054 487.756C125.192 487.756 126.21 487.924 127.106 488.26C128.002 488.577 128.711 489.044 129.234 489.66C129.756 490.276 130.018 491.032 130.018 491.928V501H125.958V492.88C125.958 492.563 125.902 492.292 125.79 492.068C125.696 491.825 125.547 491.62 125.342 491.452C125.136 491.284 124.875 491.163 124.558 491.088C124.259 491.013 123.914 490.976 123.522 490.976C122.943 490.976 122.374 491.041 121.814 491.172C121.272 491.303 120.796 491.461 120.386 491.648C119.975 491.816 119.676 491.956 119.49 492.068ZM131.671 488.12H140.295V491.62H131.671V488.12ZM133.939 483.64H137.999V501H133.939V483.64ZM148.649 501.28C147.156 501.28 145.859 501.009 144.757 500.468C143.675 499.908 142.835 499.124 142.237 498.116C141.64 497.108 141.341 495.923 141.341 494.56C141.341 493.179 141.631 491.984 142.209 490.976C142.788 489.968 143.619 489.193 144.701 488.652C145.803 488.111 147.1 487.84 148.593 487.84C150.087 487.84 151.347 488.101 152.373 488.624C153.4 489.128 154.184 489.865 154.725 490.836C155.267 491.807 155.537 492.983 155.537 494.364C155.537 494.569 155.537 494.775 155.537 494.98C155.537 495.167 155.519 495.325 155.481 495.456H143.721V493.104H151.673L150.665 494.392C150.759 494.261 150.833 494.103 150.889 493.916C150.964 493.711 151.001 493.543 151.001 493.412C151.001 492.852 150.899 492.367 150.693 491.956C150.488 491.545 150.199 491.228 149.825 491.004C149.452 490.78 149.013 490.668 148.509 490.668C147.875 490.668 147.343 490.808 146.913 491.088C146.484 491.368 146.157 491.797 145.933 492.376C145.728 492.936 145.616 493.645 145.597 494.504C145.597 495.288 145.709 495.96 145.933 496.52C146.157 497.08 146.493 497.509 146.941 497.808C147.389 498.088 147.94 498.228 148.593 498.228C149.34 498.228 149.975 498.088 150.497 497.808C151.039 497.528 151.468 497.108 151.785 496.548L155.565 497.472C154.893 498.741 153.979 499.693 152.821 500.328C151.683 500.963 150.292 501.28 148.649 501.28ZM162.32 488.12V501H158.148V488.12H162.32ZM166.044 492.488C165.82 492.264 165.577 492.087 165.316 491.956C165.073 491.825 164.765 491.76 164.392 491.76C163.981 491.76 163.617 491.872 163.3 492.096C162.983 492.32 162.74 492.647 162.572 493.076C162.404 493.505 162.32 494.028 162.32 494.644L161.312 493.16C161.312 492.133 161.508 491.219 161.9 490.416C162.311 489.613 162.843 488.979 163.496 488.512C164.149 488.045 164.831 487.812 165.54 487.812C166.007 487.812 166.455 487.905 166.884 488.092C167.313 488.279 167.64 488.54 167.864 488.876L166.044 492.488Z" fill="white"/>
<path d="M6.33482 637.699C16.4275 644.628 26.5108 651.566 36.6035 658.494C39.4411 653.135 42.2788 647.785 45.1165 642.426C48.2663 643.371 51.4256 644.316 54.5755 645.261C52.3715 649.987 50.1581 654.713 47.9542 659.439C55.2092 656.916 62.4548 654.401 69.7098 651.878L72.5475 663.22C65.2924 664.799 58.0469 666.368 50.7919 667.946C58.9928 673.929 67.1842 679.922 75.3851 685.905C73.8055 688.741 72.2353 691.576 70.6557 694.412C60.8846 687.796 51.104 681.179 41.3329 674.563C38.1831 681.491 35.0238 688.429 31.874 695.357C28.7242 693.779 25.5649 692.21 22.415 690.631C25.2527 685.272 28.0904 679.922 30.9281 674.563C22.1029 676.765 13.2682 678.977 4.44303 681.179C3.49714 678.032 2.55124 674.875 1.60535 671.727C9.80626 669.525 17.9977 667.313 26.1986 665.111C17.9977 659.118 9.7968 653.135 1.60535 647.152C3.17553 643.995 4.75518 640.847 6.33482 637.699Z" fill="white" stroke="white" stroke-miterlimit="10"/>
<path d="M19.6309 11.1661H53.3229C53.1663 19.3605 53.005 27.5596 52.8484 35.754H63.7627V1.23633H9.19108C8.87788 12.5846 8.55994 23.9329 8.242 35.2812C12.1949 35.4372 16.1525 35.598 20.1054 35.754C19.9488 27.5596 19.7875 19.3605 19.6309 11.1661Z" fill="white" stroke="white" stroke-miterlimit="10"/>
<path d="M64.6213 187.586C64.5187 185.981 63.601 174.712 53.7116 167.13C52.1201 165.909 44.9967 160.725 35.101 161.377C22.7987 162.183 11.228 171.682 8.78933 184.389C6.5753 195.915 12.8965 204.743 13.9233 206.123C14.4945 206.897 23.4661 218.563 38.3097 217.629C49.367 216.933 56.0797 209.722 57.5621 208.041C58.9226 206.494 65.3465 198.881 64.6213 187.586ZM36.5513 206.283C26.8353 206.283 19.6477 198.376 19.2241 189.024C18.807 179.704 27.4898 171.765 36.5513 171.765C46.2674 171.765 53.4549 179.672 53.8785 189.024C54.2956 198.344 45.6128 206.283 36.5513 206.283Z" fill="white" stroke="white" stroke-miterlimit="10"/>
<path d="M96.5065 89.004L95.3305 99H90.3465L93.5105 78.42L101.855 90.376L110.227 78.42L113.391 99H108.407L107.231 89.004L101.855 97.18L96.5065 89.004ZM119.26 94.968C119.26 95.304 119.344 95.5933 119.512 95.836C119.68 96.06 119.904 96.2373 120.184 96.368C120.464 96.48 120.772 96.536 121.108 96.536C121.593 96.536 122.041 96.4333 122.452 96.228C122.863 96.0227 123.199 95.7147 123.46 95.304C123.721 94.8933 123.852 94.3893 123.852 93.792L124.3 95.472C124.3 96.2933 124.076 96.9933 123.628 97.572C123.18 98.132 122.601 98.5613 121.892 98.86C121.183 99.14 120.417 99.28 119.596 99.28C118.775 99.28 118.009 99.1307 117.3 98.832C116.609 98.5147 116.049 98.048 115.62 97.432C115.209 96.816 115.004 96.0693 115.004 95.192C115.004 93.96 115.443 92.9893 116.32 92.28C117.197 91.552 118.439 91.188 120.044 91.188C120.828 91.188 121.528 91.2627 122.144 91.412C122.779 91.5613 123.32 91.748 123.768 91.972C124.216 92.196 124.552 92.4293 124.776 92.672V94.548C124.328 94.212 123.805 93.96 123.208 93.792C122.629 93.6053 122.013 93.512 121.36 93.512C120.856 93.512 120.455 93.568 120.156 93.68C119.857 93.792 119.633 93.96 119.484 94.184C119.335 94.3893 119.26 94.6507 119.26 94.968ZM117.384 90.068L115.956 87.24C116.684 86.8853 117.561 86.5493 118.588 86.232C119.615 85.9147 120.735 85.756 121.948 85.756C123.087 85.756 124.104 85.924 125 86.26C125.896 86.5773 126.605 87.044 127.128 87.66C127.651 88.276 127.912 89.032 127.912 89.928V99H123.852V90.88C123.852 90.5627 123.796 90.292 123.684 90.068C123.591 89.8253 123.441 89.62 123.236 89.452C123.031 89.284 122.769 89.1627 122.452 89.088C122.153 89.0133 121.808 88.976 121.416 88.976C120.837 88.976 120.268 89.0413 119.708 89.172C119.167 89.3027 118.691 89.4613 118.28 89.648C117.869 89.816 117.571 89.956 117.384 90.068ZM139.45 91.16C139.45 90.3947 139.3 89.8067 139.002 89.396C138.722 88.9853 138.246 88.78 137.574 88.78C137.126 88.78 136.734 88.8733 136.398 89.06C136.062 89.2467 135.8 89.5173 135.614 89.872C135.427 90.2267 135.334 90.656 135.334 91.16V99H131.078V86.12H135.334V88.052C135.707 87.3427 136.211 86.792 136.846 86.4C137.499 86.008 138.302 85.812 139.254 85.812C140.859 85.812 142.026 86.2413 142.754 87.1C143.482 87.9587 143.846 89.1627 143.846 90.712V99H139.45V91.16ZM153.735 99.28C152.242 99.28 150.945 99.0093 149.843 98.468C148.761 97.908 147.921 97.124 147.323 96.116C146.726 95.108 146.427 93.9227 146.427 92.56C146.427 91.1787 146.717 89.984 147.295 88.976C147.874 87.968 148.705 87.1933 149.787 86.652C150.889 86.1107 152.186 85.84 153.679 85.84C155.173 85.84 156.433 86.1013 157.459 86.624C158.486 87.128 159.27 87.8653 159.811 88.836C160.353 89.8067 160.623 90.9827 160.623 92.364C160.623 92.5693 160.623 92.7747 160.623 92.98C160.623 93.1667 160.605 93.3253 160.567 93.456H148.807V91.104H156.759L155.751 92.392C155.845 92.2613 155.919 92.1027 155.975 91.916C156.05 91.7107 156.087 91.5427 156.087 91.412C156.087 90.852 155.985 90.3667 155.779 89.956C155.574 89.5453 155.285 89.228 154.911 89.004C154.538 88.78 154.099 88.668 153.595 88.668C152.961 88.668 152.429 88.808 151.999 89.088C151.57 89.368 151.243 89.7973 151.019 90.376C150.814 90.936 150.702 91.6453 150.683 92.504C150.683 93.288 150.795 93.96 151.019 94.52C151.243 95.08 151.579 95.5093 152.027 95.808C152.475 96.088 153.026 96.228 153.679 96.228C154.426 96.228 155.061 96.088 155.583 95.808C156.125 95.528 156.554 95.108 156.871 94.548L160.651 95.472C159.979 96.7413 159.065 97.6933 157.907 98.328C156.769 98.9627 155.378 99.28 153.735 99.28ZM162.758 99.924H166.846C166.902 100.447 167.051 100.885 167.294 101.24C167.555 101.595 167.901 101.856 168.33 102.024C168.759 102.211 169.245 102.304 169.786 102.304C170.383 102.304 170.925 102.164 171.41 101.884C171.895 101.623 172.278 101.221 172.558 100.68C172.857 100.157 173.006 99.504 173.006 98.72V86.12H177.066V98.72C177.066 100.363 176.739 101.697 176.086 102.724C175.451 103.751 174.602 104.497 173.538 104.964C172.474 105.449 171.279 105.692 169.954 105.692C168.367 105.692 167.051 105.449 166.006 104.964C164.979 104.479 164.205 103.797 163.682 102.92C163.159 102.061 162.851 101.063 162.758 99.924ZM162.478 92.392C162.478 90.936 162.767 89.7227 163.346 88.752C163.943 87.7813 164.709 87.0533 165.642 86.568C166.575 86.0827 167.565 85.84 168.61 85.84C169.693 85.84 170.645 86.1013 171.466 86.624C172.306 87.128 172.969 87.8653 173.454 88.836C173.939 89.8067 174.182 90.992 174.182 92.392C174.182 93.7733 173.939 94.9587 173.454 95.948C172.969 96.9187 172.306 97.6653 171.466 98.188C170.645 98.692 169.693 98.944 168.61 98.944C167.565 98.944 166.575 98.7013 165.642 98.216C164.709 97.712 163.943 96.9747 163.346 96.004C162.767 95.0333 162.478 93.8293 162.478 92.392ZM166.93 92.392C166.93 93.0453 167.07 93.6147 167.35 94.1C167.63 94.5667 168.003 94.9213 168.47 95.164C168.937 95.4067 169.45 95.528 170.01 95.528C170.495 95.528 170.962 95.416 171.41 95.192C171.877 94.9493 172.259 94.5947 172.558 94.128C172.857 93.6613 173.006 93.0827 173.006 92.392C173.006 91.8693 172.913 91.412 172.726 91.02C172.558 90.628 172.325 90.3013 172.026 90.04C171.746 89.7787 171.429 89.5827 171.074 89.452C170.719 89.3213 170.365 89.256 170.01 89.256C169.45 89.256 168.937 89.3773 168.47 89.62C168.003 89.8627 167.63 90.2173 167.35 90.684C167.07 91.1507 166.93 91.72 166.93 92.392ZM186.876 99.28C185.383 99.28 184.085 99.0093 182.984 98.468C181.901 97.908 181.061 97.124 180.464 96.116C179.867 95.108 179.568 93.9227 179.568 92.56C179.568 91.1787 179.857 89.984 180.436 88.976C181.015 87.968 181.845 87.1933 182.928 86.652C184.029 86.1107 185.327 85.84 186.82 85.84C188.313 85.84 189.573 86.1013 190.6 86.624C191.627 87.128 192.411 87.8653 192.952 88.836C193.493 89.8067 193.764 90.9827 193.764 92.364C193.764 92.5693 193.764 92.7747 193.764 92.98C193.764 93.1667 193.745 93.3253 193.708 93.456H181.948V91.104H189.9L188.892 92.392C188.985 92.2613 189.06 92.1027 189.116 91.916C189.191 91.7107 189.228 91.5427 189.228 91.412C189.228 90.852 189.125 90.3667 188.92 89.956C188.715 89.5453 188.425 89.228 188.052 89.004C187.679 88.78 187.24 88.668 186.736 88.668C186.101 88.668 185.569 88.808 185.14 89.088C184.711 89.368 184.384 89.7973 184.16 90.376C183.955 90.936 183.843 91.6453 183.824 92.504C183.824 93.288 183.936 93.96 184.16 94.52C184.384 95.08 184.72 95.5093 185.168 95.808C185.616 96.088 186.167 96.228 186.82 96.228C187.567 96.228 188.201 96.088 188.724 95.808C189.265 95.528 189.695 95.108 190.012 94.548L193.792 95.472C193.12 96.7413 192.205 97.6933 191.048 98.328C189.909 98.9627 188.519 99.28 186.876 99.28ZM204.747 91.16C204.747 90.3947 204.597 89.8067 204.299 89.396C204.019 88.9853 203.543 88.78 202.871 88.78C202.423 88.78 202.031 88.8733 201.695 89.06C201.359 89.2467 201.097 89.5173 200.911 89.872C200.724 90.2267 200.631 90.656 200.631 91.16V99H196.375V86.12H200.631V88.052C201.004 87.3427 201.508 86.792 202.143 86.4C202.796 86.008 203.599 85.812 204.551 85.812C206.156 85.812 207.323 86.2413 208.051 87.1C208.779 87.9587 209.143 89.1627 209.143 90.712V99H204.747V91.16Z" fill="white"/>
<path d="M89.5065 274.628V270.4H105.019V274.628H99.6145V290H94.8825V274.628H89.5065ZM108.672 277.12V290H104.5V277.12H108.672ZM112.396 281.488C112.172 281.264 111.929 281.087 111.668 280.956C111.425 280.825 111.117 280.76 110.744 280.76C110.333 280.76 109.969 280.872 109.652 281.096C109.334 281.32 109.092 281.647 108.924 282.076C108.756 282.505 108.672 283.028 108.672 283.644L107.664 282.16C107.664 281.133 107.86 280.219 108.252 279.416C108.662 278.613 109.194 277.979 109.848 277.512C110.501 277.045 111.182 276.812 111.892 276.812C112.358 276.812 112.806 276.905 113.236 277.092C113.665 277.279 113.992 277.54 114.216 277.876L112.396 281.488ZM115.759 272.276C115.759 271.604 116.002 271.063 116.487 270.652C116.973 270.223 117.551 270.008 118.223 270.008C118.914 270.008 119.493 270.223 119.959 270.652C120.445 271.063 120.687 271.604 120.687 272.276C120.687 272.948 120.445 273.499 119.959 273.928C119.493 274.357 118.914 274.572 118.223 274.572C117.551 274.572 116.973 274.357 116.487 273.928C116.002 273.499 115.759 272.948 115.759 272.276ZM116.179 277.12H120.267V290H116.179V277.12ZM127.95 268.16V290H123.722V268.16H127.95ZM138.478 283.56C138.478 284.997 138.179 286.22 137.582 287.228C137.003 288.217 136.247 288.973 135.314 289.496C134.399 290.019 133.41 290.28 132.346 290.28C131.282 290.28 130.33 290.009 129.49 289.468C128.65 288.927 127.987 288.152 127.502 287.144C127.016 286.136 126.774 284.941 126.774 283.56C126.774 282.16 127.016 280.965 127.502 279.976C127.987 278.968 128.65 278.193 129.49 277.652C130.33 277.111 131.282 276.84 132.346 276.84C133.41 276.84 134.399 277.101 135.314 277.624C136.247 278.147 137.003 278.903 137.582 279.892C138.179 280.881 138.478 282.104 138.478 283.56ZM134.026 283.56C134.026 282.888 133.886 282.309 133.606 281.824C133.326 281.32 132.952 280.937 132.486 280.676C132.019 280.396 131.506 280.256 130.946 280.256C130.46 280.256 129.984 280.387 129.518 280.648C129.07 280.909 128.696 281.292 128.398 281.796C128.099 282.281 127.95 282.869 127.95 283.56C127.95 284.251 128.099 284.848 128.398 285.352C128.696 285.837 129.07 286.211 129.518 286.472C129.984 286.733 130.46 286.864 130.946 286.864C131.506 286.864 132.019 286.733 132.486 286.472C132.952 286.192 133.326 285.809 133.606 285.324C133.886 284.82 134.026 284.232 134.026 283.56ZM145.455 284.96C145.455 285.707 145.595 286.295 145.875 286.724C146.155 287.135 146.64 287.34 147.331 287.34C147.798 287.34 148.19 287.247 148.507 287.06C148.843 286.873 149.104 286.603 149.291 286.248C149.478 285.893 149.571 285.464 149.571 284.96V277.12H153.799V290H149.571V288.068C149.179 288.759 148.666 289.309 148.031 289.72C147.396 290.112 146.603 290.308 145.651 290.308C144.046 290.308 142.87 289.879 142.123 289.02C141.395 288.143 141.031 286.939 141.031 285.408V277.12H145.455V284.96ZM165.508 282.16C165.508 281.395 165.359 280.807 165.06 280.396C164.78 279.985 164.304 279.78 163.632 279.78C163.184 279.78 162.792 279.873 162.456 280.06C162.12 280.247 161.859 280.517 161.672 280.872C161.486 281.227 161.392 281.656 161.392 282.16V290H157.136V277.12H161.392V279.052C161.766 278.343 162.27 277.792 162.904 277.4C163.558 277.008 164.36 276.812 165.312 276.812C166.918 276.812 168.084 277.241 168.812 278.1C169.54 278.959 169.904 280.163 169.904 281.712V290H165.508V282.16ZM179.794 290.28C178.301 290.28 177.003 290.009 175.902 289.468C174.819 288.908 173.979 288.124 173.382 287.116C172.785 286.108 172.486 284.923 172.486 283.56C172.486 282.179 172.775 280.984 173.354 279.976C173.933 278.968 174.763 278.193 175.846 277.652C176.947 277.111 178.245 276.84 179.738 276.84C181.231 276.84 182.491 277.101 183.518 277.624C184.545 278.128 185.329 278.865 185.87 279.836C186.411 280.807 186.682 281.983 186.682 283.364C186.682 283.569 186.682 283.775 186.682 283.98C186.682 284.167 186.663 284.325 186.626 284.456H174.866V282.104H182.818L181.81 283.392C181.903 283.261 181.978 283.103 182.034 282.916C182.109 282.711 182.146 282.543 182.146 282.412C182.146 281.852 182.043 281.367 181.838 280.956C181.633 280.545 181.343 280.228 180.97 280.004C180.597 279.78 180.158 279.668 179.654 279.668C179.019 279.668 178.487 279.808 178.058 280.088C177.629 280.368 177.302 280.797 177.078 281.376C176.873 281.936 176.761 282.645 176.742 283.504C176.742 284.288 176.854 284.96 177.078 285.52C177.302 286.08 177.638 286.509 178.086 286.808C178.534 287.088 179.085 287.228 179.738 287.228C180.485 287.228 181.119 287.088 181.642 286.808C182.183 286.528 182.613 286.108 182.93 285.548L186.71 286.472C186.038 287.741 185.123 288.693 183.966 289.328C182.827 289.963 181.437 290.28 179.794 290.28ZM197.665 282.16C197.665 281.395 197.515 280.807 197.217 280.396C196.937 279.985 196.461 279.78 195.789 279.78C195.341 279.78 194.949 279.873 194.613 280.06C194.277 280.247 194.015 280.517 193.829 280.872C193.642 281.227 193.549 281.656 193.549 282.16V290H189.293V277.12H193.549V279.052C193.922 278.343 194.426 277.792 195.061 277.4C195.714 277.008 196.517 276.812 197.469 276.812C199.074 276.812 200.241 277.241 200.969 278.1C201.697 278.959 202.061 280.163 202.061 281.712V290H197.665V282.16Z" fill="white"/>
<path d="M95.4985 192.2C95.4985 193.395 95.7692 194.431 96.3105 195.308C96.8519 196.167 97.5612 196.82 98.4385 197.268C99.3345 197.716 100.315 197.94 101.379 197.94C102.312 197.94 103.133 197.819 103.843 197.576C104.552 197.333 105.187 197.016 105.747 196.624C106.307 196.232 106.801 195.812 107.231 195.364V200.46C106.447 201.076 105.588 201.561 104.655 201.916C103.721 202.271 102.536 202.448 101.099 202.448C99.5305 202.448 98.0839 202.205 96.7585 201.72C95.4332 201.235 94.2945 200.535 93.3425 199.62C92.3905 198.705 91.6532 197.623 91.1305 196.372C90.6079 195.121 90.3465 193.731 90.3465 192.2C90.3465 190.669 90.6079 189.279 91.1305 188.028C91.6532 186.777 92.3905 185.695 93.3425 184.78C94.2945 183.865 95.4332 183.165 96.7585 182.68C98.0839 182.195 99.5305 181.952 101.099 181.952C102.536 181.952 103.721 182.129 104.655 182.484C105.588 182.839 106.447 183.324 107.231 183.94V189.036C106.801 188.588 106.307 188.168 105.747 187.776C105.187 187.365 104.552 187.048 103.843 186.824C103.133 186.581 102.312 186.46 101.379 186.46C100.315 186.46 99.3345 186.684 98.4385 187.132C97.5612 187.58 96.8519 188.233 96.3105 189.092C95.7692 189.951 95.4985 190.987 95.4985 192.2ZM113.955 197.968C113.955 198.304 114.039 198.593 114.207 198.836C114.375 199.06 114.599 199.237 114.879 199.368C115.159 199.48 115.467 199.536 115.803 199.536C116.289 199.536 116.737 199.433 117.147 199.228C117.558 199.023 117.894 198.715 118.155 198.304C118.417 197.893 118.547 197.389 118.547 196.792L118.995 198.472C118.995 199.293 118.771 199.993 118.323 200.572C117.875 201.132 117.297 201.561 116.587 201.86C115.878 202.14 115.113 202.28 114.291 202.28C113.47 202.28 112.705 202.131 111.995 201.832C111.305 201.515 110.745 201.048 110.315 200.432C109.905 199.816 109.699 199.069 109.699 198.192C109.699 196.96 110.138 195.989 111.015 195.28C111.893 194.552 113.134 194.188 114.739 194.188C115.523 194.188 116.223 194.263 116.839 194.412C117.474 194.561 118.015 194.748 118.463 194.972C118.911 195.196 119.247 195.429 119.471 195.672V197.548C119.023 197.212 118.501 196.96 117.903 196.792C117.325 196.605 116.709 196.512 116.055 196.512C115.551 196.512 115.15 196.568 114.851 196.68C114.553 196.792 114.329 196.96 114.179 197.184C114.03 197.389 113.955 197.651 113.955 197.968ZM112.079 193.068L110.651 190.24C111.379 189.885 112.257 189.549 113.283 189.232C114.31 188.915 115.43 188.756 116.643 188.756C117.782 188.756 118.799 188.924 119.695 189.26C120.591 189.577 121.301 190.044 121.823 190.66C122.346 191.276 122.607 192.032 122.607 192.928V202H118.547V193.88C118.547 193.563 118.491 193.292 118.379 193.068C118.286 192.825 118.137 192.62 117.931 192.452C117.726 192.284 117.465 192.163 117.147 192.088C116.849 192.013 116.503 191.976 116.111 191.976C115.533 191.976 114.963 192.041 114.403 192.172C113.862 192.303 113.386 192.461 112.975 192.648C112.565 192.816 112.266 192.956 112.079 193.068ZM129.945 189.12V202H125.773V189.12H129.945ZM133.669 193.488C133.445 193.264 133.202 193.087 132.941 192.956C132.698 192.825 132.39 192.76 132.017 192.76C131.606 192.76 131.242 192.872 130.925 193.096C130.608 193.32 130.365 193.647 130.197 194.076C130.029 194.505 129.945 195.028 129.945 195.644L128.937 194.16C128.937 193.133 129.133 192.219 129.525 191.416C129.936 190.613 130.468 189.979 131.121 189.512C131.774 189.045 132.456 188.812 133.165 188.812C133.632 188.812 134.08 188.905 134.509 189.092C134.938 189.279 135.265 189.54 135.489 189.876L133.669 193.488ZM136.119 195.56C136.119 194.197 136.436 193.012 137.071 192.004C137.705 190.996 138.583 190.212 139.703 189.652C140.823 189.092 142.083 188.812 143.483 188.812C144.883 188.812 146.133 189.092 147.235 189.652C148.355 190.212 149.232 190.996 149.867 192.004C150.52 193.012 150.847 194.197 150.847 195.56C150.847 196.904 150.52 198.08 149.867 199.088C149.232 200.096 148.355 200.88 147.235 201.44C146.133 202 144.883 202.28 143.483 202.28C142.083 202.28 140.823 202 139.703 201.44C138.583 200.88 137.705 200.096 137.071 199.088C136.436 198.08 136.119 196.904 136.119 195.56ZM140.459 195.56C140.459 196.232 140.599 196.811 140.879 197.296C141.159 197.763 141.523 198.127 141.971 198.388C142.419 198.649 142.923 198.78 143.483 198.78C144.024 198.78 144.519 198.649 144.967 198.388C145.433 198.127 145.797 197.763 146.059 197.296C146.339 196.811 146.479 196.232 146.479 195.56C146.479 194.888 146.339 194.309 146.059 193.824C145.797 193.339 145.433 192.965 144.967 192.704C144.519 192.443 144.024 192.312 143.483 192.312C142.923 192.312 142.419 192.443 141.971 192.704C141.523 192.965 141.159 193.339 140.879 193.824C140.599 194.309 140.459 194.888 140.459 195.56ZM157.814 196.96C157.814 197.707 157.954 198.295 158.234 198.724C158.514 199.135 159 199.34 159.69 199.34C160.157 199.34 160.549 199.247 160.866 199.06C161.202 198.873 161.464 198.603 161.65 198.248C161.837 197.893 161.93 197.464 161.93 196.96V189.12H166.158V202H161.93V200.068C161.538 200.759 161.025 201.309 160.39 201.72C159.756 202.112 158.962 202.308 158.01 202.308C156.405 202.308 155.229 201.879 154.482 201.02C153.754 200.143 153.39 198.939 153.39 197.408V189.12H157.814V196.96ZM170.196 197.324C170.849 197.865 171.437 198.295 171.96 198.612C172.501 198.911 172.977 199.125 173.388 199.256C173.798 199.368 174.153 199.424 174.452 199.424C174.881 199.424 175.198 199.331 175.404 199.144C175.609 198.957 175.712 198.715 175.712 198.416C175.712 198.136 175.628 197.903 175.46 197.716C175.292 197.511 175.002 197.315 174.592 197.128C174.2 196.941 173.658 196.745 172.968 196.54C172.352 196.316 171.764 196.055 171.204 195.756C170.662 195.439 170.214 195.019 169.86 194.496C169.505 193.973 169.328 193.301 169.328 192.48C169.328 191.696 169.533 191.033 169.944 190.492C170.373 189.951 170.942 189.54 171.652 189.26C172.38 188.98 173.21 188.84 174.144 188.84C174.89 188.84 175.581 188.924 176.216 189.092C176.869 189.26 177.476 189.484 178.036 189.764C178.614 190.044 179.156 190.371 179.66 190.744L178.148 193.488C177.606 192.984 176.99 192.573 176.3 192.256C175.609 191.92 174.974 191.752 174.396 191.752C174.004 191.752 173.705 191.827 173.5 191.976C173.313 192.125 173.22 192.321 173.22 192.564C173.22 192.844 173.332 193.077 173.556 193.264C173.798 193.451 174.134 193.628 174.564 193.796C175.012 193.945 175.553 194.141 176.188 194.384C176.86 194.627 177.476 194.907 178.036 195.224C178.614 195.541 179.072 195.943 179.408 196.428C179.762 196.913 179.94 197.557 179.94 198.36C179.94 199.741 179.51 200.787 178.652 201.496C177.812 202.187 176.626 202.532 175.096 202.532C174.162 202.532 173.294 202.42 172.492 202.196C171.708 201.991 170.98 201.711 170.308 201.356C169.636 200.983 169.01 200.572 168.432 200.124L170.196 197.324ZM188.817 202.28C187.324 202.28 186.027 202.009 184.925 201.468C183.843 200.908 183.003 200.124 182.405 199.116C181.808 198.108 181.509 196.923 181.509 195.56C181.509 194.179 181.799 192.984 182.377 191.976C182.956 190.968 183.787 190.193 184.869 189.652C185.971 189.111 187.268 188.84 188.761 188.84C190.255 188.84 191.515 189.101 192.541 189.624C193.568 190.128 194.352 190.865 194.893 191.836C195.435 192.807 195.705 193.983 195.705 195.364C195.705 195.569 195.705 195.775 195.705 195.98C195.705 196.167 195.687 196.325 195.649 196.456H183.889V194.104H191.841L190.833 195.392C190.927 195.261 191.001 195.103 191.057 194.916C191.132 194.711 191.169 194.543 191.169 194.412C191.169 193.852 191.067 193.367 190.861 192.956C190.656 192.545 190.367 192.228 189.993 192.004C189.62 191.78 189.181 191.668 188.677 191.668C188.043 191.668 187.511 191.808 187.081 192.088C186.652 192.368 186.325 192.797 186.101 193.376C185.896 193.936 185.784 194.645 185.765 195.504C185.765 196.288 185.877 196.96 186.101 197.52C186.325 198.08 186.661 198.509 187.109 198.808C187.557 199.088 188.108 199.228 188.761 199.228C189.508 199.228 190.143 199.088 190.665 198.808C191.207 198.528 191.636 198.108 191.953 197.548L195.733 198.472C195.061 199.741 194.147 200.693 192.989 201.328C191.851 201.963 190.46 202.28 188.817 202.28ZM198.316 180.16H202.572V202H198.316V180.16Z" fill="white"/>
<path d="M94.9945 675.256V673.184H98.1585C98.6999 673.184 99.1572 673.1 99.5305 672.932C99.9225 672.764 100.221 672.531 100.427 672.232C100.632 671.915 100.735 671.532 100.735 671.084C100.735 670.412 100.511 669.908 100.063 669.572C99.6145 669.236 98.9799 669.068 98.1585 669.068H96.1985V681.332H98.6065C99.2225 681.332 99.7732 681.257 100.259 681.108C100.744 680.94 101.127 680.679 101.407 680.324C101.705 679.951 101.855 679.447 101.855 678.812C101.855 678.401 101.771 678.047 101.603 677.748C101.435 677.449 101.201 677.207 100.903 677.02C100.604 676.833 100.259 676.703 99.8665 676.628C99.4932 676.535 99.0732 676.488 98.6065 676.488H94.9945V673.912H99.1385C100.091 673.912 101.015 674.015 101.911 674.22C102.807 674.425 103.619 674.761 104.347 675.228C105.075 675.676 105.653 676.255 106.083 676.964C106.531 677.655 106.755 678.495 106.755 679.484C106.755 680.791 106.437 681.845 105.803 682.648C105.187 683.451 104.309 684.048 103.171 684.44C102.032 684.813 100.688 685 99.1385 685H91.4665V665.4H98.6625C100.025 665.4 101.22 665.587 102.247 665.96C103.292 666.315 104.113 666.865 104.711 667.612C105.327 668.34 105.635 669.264 105.635 670.384C105.635 671.411 105.327 672.288 104.711 673.016C104.113 673.744 103.292 674.304 102.247 674.696C101.22 675.069 100.025 675.256 98.6625 675.256H94.9945ZM108.884 678.56C108.884 677.197 109.202 676.012 109.836 675.004C110.471 673.996 111.348 673.212 112.468 672.652C113.588 672.092 114.848 671.812 116.248 671.812C117.648 671.812 118.899 672.092 120 672.652C121.12 673.212 121.998 673.996 122.632 675.004C123.286 676.012 123.612 677.197 123.612 678.56C123.612 679.904 123.286 681.08 122.632 682.088C121.998 683.096 121.12 683.88 120 684.44C118.899 685 117.648 685.28 116.248 685.28C114.848 685.28 113.588 685 112.468 684.44C111.348 683.88 110.471 683.096 109.836 682.088C109.202 681.08 108.884 679.904 108.884 678.56ZM113.224 678.56C113.224 679.232 113.364 679.811 113.644 680.296C113.924 680.763 114.288 681.127 114.736 681.388C115.184 681.649 115.688 681.78 116.248 681.78C116.79 681.78 117.284 681.649 117.732 681.388C118.199 681.127 118.563 680.763 118.824 680.296C119.104 679.811 119.244 679.232 119.244 678.56C119.244 677.888 119.104 677.309 118.824 676.824C118.563 676.339 118.199 675.965 117.732 675.704C117.284 675.443 116.79 675.312 116.248 675.312C115.688 675.312 115.184 675.443 114.736 675.704C114.288 675.965 113.924 676.339 113.644 676.824C113.364 677.309 113.224 677.888 113.224 678.56ZM134.528 677.16C134.528 676.395 134.379 675.807 134.08 675.396C133.8 674.985 133.324 674.78 132.652 674.78C132.204 674.78 131.812 674.873 131.476 675.06C131.14 675.247 130.879 675.517 130.692 675.872C130.505 676.227 130.412 676.656 130.412 677.16V685H126.156V672.12H130.412V674.052C130.785 673.343 131.289 672.792 131.924 672.4C132.577 672.008 133.38 671.812 134.332 671.812C135.937 671.812 137.104 672.241 137.832 673.1C138.56 673.959 138.924 675.163 138.924 676.712V685H134.528V677.16ZM141.113 672.12H149.905V675.62H141.113V672.12ZM149.429 667.22C149.243 666.977 149.037 666.8 148.813 666.688C148.608 666.576 148.384 666.52 148.141 666.52C147.861 666.52 147.619 666.585 147.413 666.716C147.227 666.847 147.077 667.052 146.965 667.332C146.853 667.612 146.797 667.976 146.797 668.424V685H142.737V667.36C142.737 666.389 142.915 665.559 143.269 664.868C143.643 664.177 144.184 663.645 144.893 663.272C145.621 662.899 146.517 662.712 147.581 662.712C148.235 662.712 148.785 662.796 149.233 662.964C149.681 663.113 150.064 663.3 150.381 663.524C150.699 663.729 150.951 663.925 151.137 664.112L149.429 667.22ZM151.634 667.276C151.634 666.604 151.877 666.063 152.362 665.652C152.848 665.223 153.426 665.008 154.098 665.008C154.789 665.008 155.368 665.223 155.834 665.652C156.32 666.063 156.562 666.604 156.562 667.276C156.562 667.948 156.32 668.499 155.834 668.928C155.368 669.357 154.789 669.572 154.098 669.572C153.426 669.572 152.848 669.357 152.362 668.928C151.877 668.499 151.634 667.948 151.634 667.276ZM152.054 672.12H156.142V685H152.054V672.12ZM163.797 672.12V685H159.625V672.12H163.797ZM167.521 676.488C167.297 676.264 167.054 676.087 166.793 675.956C166.55 675.825 166.242 675.76 165.869 675.76C165.458 675.76 165.094 675.872 164.777 676.096C164.459 676.32 164.217 676.647 164.049 677.076C163.881 677.505 163.797 678.028 163.797 678.644L162.789 677.16C162.789 676.133 162.985 675.219 163.377 674.416C163.787 673.613 164.319 672.979 164.973 672.512C165.626 672.045 166.307 671.812 167.017 671.812C167.483 671.812 167.931 671.905 168.361 672.092C168.79 672.279 169.117 672.54 169.341 672.876L167.521 676.488ZM177.278 685.28C175.785 685.28 174.488 685.009 173.386 684.468C172.304 683.908 171.464 683.124 170.866 682.116C170.269 681.108 169.97 679.923 169.97 678.56C169.97 677.179 170.26 675.984 170.838 674.976C171.417 673.968 172.248 673.193 173.33 672.652C174.432 672.111 175.729 671.84 177.222 671.84C178.716 671.84 179.976 672.101 181.002 672.624C182.029 673.128 182.813 673.865 183.354 674.836C183.896 675.807 184.166 676.983 184.166 678.364C184.166 678.569 184.166 678.775 184.166 678.98C184.166 679.167 184.148 679.325 184.11 679.456H172.35V677.104H180.302L179.294 678.392C179.388 678.261 179.462 678.103 179.518 677.916C179.593 677.711 179.63 677.543 179.63 677.412C179.63 676.852 179.528 676.367 179.322 675.956C179.117 675.545 178.828 675.228 178.454 675.004C178.081 674.78 177.642 674.668 177.138 674.668C176.504 674.668 175.972 674.808 175.542 675.088C175.113 675.368 174.786 675.797 174.562 676.376C174.357 676.936 174.245 677.645 174.226 678.504C174.226 679.288 174.338 679.96 174.562 680.52C174.786 681.08 175.122 681.509 175.57 681.808C176.018 682.088 176.569 682.228 177.222 682.228C177.969 682.228 178.604 682.088 179.126 681.808C179.668 681.528 180.097 681.108 180.414 680.548L184.194 681.472C183.522 682.741 182.608 683.693 181.45 684.328C180.312 684.963 178.921 685.28 177.278 685.28Z" fill="white"/>
<path d="M89.5065 577.628V573.4H105.019V577.628H99.6145V593H94.8825V577.628H89.5065ZM110.998 571.16V593H106.742V571.16H110.998ZM115.114 585.16C115.114 584.395 114.974 583.807 114.694 583.396C114.414 582.985 113.929 582.78 113.238 582.78C112.79 582.78 112.398 582.883 112.062 583.088C111.726 583.275 111.465 583.545 111.278 583.9C111.091 584.236 110.998 584.656 110.998 585.16H110.27C110.27 584.133 110.438 583.209 110.774 582.388C111.11 581.548 111.614 580.885 112.286 580.4C112.977 579.896 113.854 579.644 114.918 579.644C115.982 579.644 116.831 579.831 117.466 580.204C118.119 580.577 118.595 581.128 118.894 581.856C119.193 582.584 119.342 583.48 119.342 584.544V593H115.114V585.16ZM129.235 593.28C127.742 593.28 126.445 593.009 125.343 592.468C124.261 591.908 123.421 591.124 122.823 590.116C122.226 589.108 121.927 587.923 121.927 586.56C121.927 585.179 122.217 583.984 122.795 582.976C123.374 581.968 124.205 581.193 125.287 580.652C126.389 580.111 127.686 579.84 129.179 579.84C130.673 579.84 131.933 580.101 132.959 580.624C133.986 581.128 134.77 581.865 135.311 582.836C135.853 583.807 136.123 584.983 136.123 586.364C136.123 586.569 136.123 586.775 136.123 586.98C136.123 587.167 136.105 587.325 136.067 587.456H124.307V585.104H132.259L131.251 586.392C131.345 586.261 131.419 586.103 131.475 585.916C131.55 585.711 131.587 585.543 131.587 585.412C131.587 584.852 131.485 584.367 131.279 583.956C131.074 583.545 130.785 583.228 130.411 583.004C130.038 582.78 129.599 582.668 129.095 582.668C128.461 582.668 127.929 582.808 127.499 583.088C127.07 583.368 126.743 583.797 126.519 584.376C126.314 584.936 126.202 585.645 126.183 586.504C126.183 587.288 126.295 587.96 126.519 588.52C126.743 589.08 127.079 589.509 127.527 589.808C127.975 590.088 128.526 590.228 129.179 590.228C129.926 590.228 130.561 590.088 131.083 589.808C131.625 589.528 132.054 589.108 132.371 588.548L136.151 589.472C135.479 590.741 134.565 591.693 133.407 592.328C132.269 592.963 130.878 593.28 129.235 593.28ZM145.281 580.12H149.705L152.393 586.728L156.089 579.14L159.869 586.728L162.557 580.12H166.981L160.345 593.812L156.089 586.14L151.917 593.812L145.281 580.12ZM168.177 575.276C168.177 574.604 168.42 574.063 168.905 573.652C169.391 573.223 169.969 573.008 170.641 573.008C171.332 573.008 171.911 573.223 172.377 573.652C172.863 574.063 173.105 574.604 173.105 575.276C173.105 575.948 172.863 576.499 172.377 576.928C171.911 577.357 171.332 577.572 170.641 577.572C169.969 577.572 169.391 577.357 168.905 576.928C168.42 576.499 168.177 575.948 168.177 575.276ZM168.597 580.12H172.685V593H168.597V580.12ZM174.656 580.12H183.28V583.62H174.656V580.12ZM176.924 575.64H180.984V593H176.924V575.64ZM188.638 586.56C188.638 587.251 188.787 587.848 189.086 588.352C189.384 588.837 189.795 589.22 190.318 589.5C190.859 589.78 191.438 589.92 192.054 589.92C192.576 589.92 193.071 589.845 193.538 589.696C194.023 589.528 194.462 589.304 194.854 589.024C195.264 588.744 195.6 588.399 195.862 587.988V592.104C195.414 592.459 194.854 592.748 194.182 592.972C193.51 593.177 192.688 593.28 191.718 593.28C190.299 593.28 189.02 593 187.882 592.44C186.762 591.88 185.875 591.096 185.222 590.088C184.587 589.08 184.27 587.904 184.27 586.56C184.27 585.197 184.587 584.021 185.222 583.032C185.875 582.024 186.762 581.24 187.882 580.68C189.02 580.12 190.299 579.84 191.718 579.84C192.688 579.84 193.51 579.952 194.182 580.176C194.854 580.381 195.414 580.643 195.862 580.96V585.104C195.6 584.693 195.255 584.348 194.826 584.068C194.415 583.788 193.967 583.573 193.482 583.424C192.996 583.275 192.52 583.2 192.054 583.2C191.438 583.2 190.859 583.349 190.318 583.648C189.795 583.947 189.384 584.348 189.086 584.852C188.787 585.356 188.638 585.925 188.638 586.56ZM203.174 571.16V593H198.918V571.16H203.174ZM207.29 585.16C207.29 584.395 207.15 583.807 206.87 583.396C206.59 582.985 206.104 582.78 205.414 582.78C204.966 582.78 204.574 582.883 204.238 583.088C203.902 583.275 203.64 583.545 203.454 583.9C203.267 584.236 203.174 584.656 203.174 585.16H202.446C202.446 584.133 202.614 583.209 202.95 582.388C203.286 581.548 203.79 580.885 204.462 580.4C205.152 579.896 206.03 579.644 207.094 579.644C208.158 579.644 209.007 579.831 209.642 580.204C210.295 580.577 210.771 581.128 211.07 581.856C211.368 582.584 211.518 583.48 211.518 584.544V593H207.29V585.16ZM226.81 586.56C226.81 587.251 226.959 587.848 227.258 588.352C227.556 588.837 227.967 589.22 228.49 589.5C229.031 589.78 229.61 589.92 230.226 589.92C230.748 589.92 231.243 589.845 231.71 589.696C232.195 589.528 232.634 589.304 233.026 589.024C233.436 588.744 233.772 588.399 234.034 587.988V592.104C233.586 592.459 233.026 592.748 232.354 592.972C231.682 593.177 230.86 593.28 229.89 593.28C228.471 593.28 227.192 593 226.054 592.44C224.934 591.88 224.047 591.096 223.394 590.088C222.759 589.08 222.442 587.904 222.442 586.56C222.442 585.197 222.759 584.021 223.394 583.032C224.047 582.024 224.934 581.24 226.054 580.68C227.192 580.12 228.471 579.84 229.89 579.84C230.86 579.84 231.682 579.952 232.354 580.176C233.026 580.381 233.586 580.643 234.034 580.96V585.104C233.772 584.693 233.427 584.348 232.998 584.068C232.587 583.788 232.139 583.573 231.654 583.424C231.168 583.275 230.692 583.2 230.226 583.2C229.61 583.2 229.031 583.349 228.49 583.648C227.967 583.947 227.556 584.348 227.258 584.852C226.959 585.356 226.81 585.925 226.81 586.56ZM240.366 588.968C240.366 589.304 240.45 589.593 240.618 589.836C240.786 590.06 241.01 590.237 241.29 590.368C241.57 590.48 241.878 590.536 242.214 590.536C242.699 590.536 243.147 590.433 243.558 590.228C243.968 590.023 244.304 589.715 244.566 589.304C244.827 588.893 244.958 588.389 244.958 587.792L245.406 589.472C245.406 590.293 245.182 590.993 244.734 591.572C244.286 592.132 243.707 592.561 242.998 592.86C242.288 593.14 241.523 593.28 240.702 593.28C239.88 593.28 239.115 593.131 238.406 592.832C237.715 592.515 237.155 592.048 236.726 591.432C236.315 590.816 236.11 590.069 236.11 589.192C236.11 587.96 236.548 586.989 237.426 586.28C238.303 585.552 239.544 585.188 241.15 585.188C241.934 585.188 242.634 585.263 243.25 585.412C243.884 585.561 244.426 585.748 244.874 585.972C245.322 586.196 245.658 586.429 245.882 586.672V588.548C245.434 588.212 244.911 587.96 244.314 587.792C243.735 587.605 243.119 587.512 242.466 587.512C241.962 587.512 241.56 587.568 241.262 587.68C240.963 587.792 240.739 587.96 240.59 588.184C240.44 588.389 240.366 588.651 240.366 588.968ZM238.49 584.068L237.062 581.24C237.79 580.885 238.667 580.549 239.694 580.232C240.72 579.915 241.84 579.756 243.054 579.756C244.192 579.756 245.21 579.924 246.106 580.26C247.002 580.577 247.711 581.044 248.234 581.66C248.756 582.276 249.018 583.032 249.018 583.928V593H244.958V584.88C244.958 584.563 244.902 584.292 244.79 584.068C244.696 583.825 244.547 583.62 244.342 583.452C244.136 583.284 243.875 583.163 243.558 583.088C243.259 583.013 242.914 582.976 242.522 582.976C241.943 582.976 241.374 583.041 240.814 583.172C240.272 583.303 239.796 583.461 239.386 583.648C238.975 583.816 238.676 583.956 238.49 584.068ZM250.311 580.12H254.819L257.787 587.26L260.727 580.12H265.235L257.787 594.512L250.311 580.12ZM272.954 593.28C271.461 593.28 270.163 593.009 269.062 592.468C267.979 591.908 267.139 591.124 266.542 590.116C265.945 589.108 265.646 587.923 265.646 586.56C265.646 585.179 265.935 583.984 266.514 582.976C267.093 581.968 267.923 581.193 269.006 580.652C270.107 580.111 271.405 579.84 272.898 579.84C274.391 579.84 275.651 580.101 276.678 580.624C277.705 581.128 278.489 581.865 279.03 582.836C279.571 583.807 279.842 584.983 279.842 586.364C279.842 586.569 279.842 586.775 279.842 586.98C279.842 587.167 279.823 587.325 279.786 587.456H268.026V585.104H275.978L274.97 586.392C275.063 586.261 275.138 586.103 275.194 585.916C275.269 585.711 275.306 585.543 275.306 585.412C275.306 584.852 275.203 584.367 274.998 583.956C274.793 583.545 274.503 583.228 274.13 583.004C273.757 582.78 273.318 582.668 272.814 582.668C272.179 582.668 271.647 582.808 271.218 583.088C270.789 583.368 270.462 583.797 270.238 584.376C270.033 584.936 269.921 585.645 269.902 586.504C269.902 587.288 270.014 587.96 270.238 588.52C270.462 589.08 270.798 589.509 271.246 589.808C271.694 590.088 272.245 590.228 272.898 590.228C273.645 590.228 274.279 590.088 274.802 589.808C275.343 589.528 275.773 589.108 276.09 588.548L279.87 589.472C279.198 590.741 278.283 591.693 277.126 592.328C275.987 592.963 274.597 593.28 272.954 593.28Z" fill="white"/>
<path d="M94.6 368.256V366.184H97.764C98.3053 366.184 98.7627 366.1 99.136 365.932C99.528 365.764 99.8267 365.531 100.032 365.232C100.237 364.915 100.34 364.532 100.34 364.084C100.34 363.412 100.116 362.908 99.668 362.572C99.22 362.236 98.5853 362.068 97.764 362.068H95.804V374.332H98.212C98.828 374.332 99.3787 374.257 99.864 374.108C100.349 373.94 100.732 373.679 101.012 373.324C101.311 372.951 101.46 372.447 101.46 371.812C101.46 371.401 101.376 371.047 101.208 370.748C101.04 370.449 100.807 370.207 100.508 370.02C100.209 369.833 99.864 369.703 99.472 369.628C99.0987 369.535 98.6787 369.488 98.212 369.488H94.6V366.912H98.744C99.696 366.912 100.62 367.015 101.516 367.22C102.412 367.425 103.224 367.761 103.952 368.228C104.68 368.676 105.259 369.255 105.688 369.964C106.136 370.655 106.36 371.495 106.36 372.484C106.36 373.791 106.043 374.845 105.408 375.648C104.792 376.451 103.915 377.048 102.776 377.44C101.637 377.813 100.293 378 98.744 378H91.072V358.4H98.268C99.6307 358.4 100.825 358.587 101.852 358.96C102.897 359.315 103.719 359.865 104.316 360.612C104.932 361.34 105.24 362.264 105.24 363.384C105.24 364.411 104.932 365.288 104.316 366.016C103.719 366.744 102.897 367.304 101.852 367.696C100.825 368.069 99.6307 368.256 98.268 368.256H94.6ZM112.522 373.968C112.522 374.304 112.606 374.593 112.774 374.836C112.942 375.06 113.166 375.237 113.446 375.368C113.726 375.48 114.034 375.536 114.37 375.536C114.855 375.536 115.303 375.433 115.714 375.228C116.124 375.023 116.46 374.715 116.722 374.304C116.983 373.893 117.114 373.389 117.114 372.792L117.562 374.472C117.562 375.293 117.338 375.993 116.89 376.572C116.442 377.132 115.863 377.561 115.154 377.86C114.444 378.14 113.679 378.28 112.858 378.28C112.036 378.28 111.271 378.131 110.562 377.832C109.871 377.515 109.311 377.048 108.882 376.432C108.471 375.816 108.266 375.069 108.266 374.192C108.266 372.96 108.704 371.989 109.582 371.28C110.459 370.552 111.7 370.188 113.306 370.188C114.09 370.188 114.79 370.263 115.406 370.412C116.04 370.561 116.582 370.748 117.03 370.972C117.478 371.196 117.814 371.429 118.038 371.672V373.548C117.59 373.212 117.067 372.96 116.47 372.792C115.891 372.605 115.275 372.512 114.622 372.512C114.118 372.512 113.716 372.568 113.418 372.68C113.119 372.792 112.895 372.96 112.746 373.184C112.596 373.389 112.522 373.651 112.522 373.968ZM110.646 369.068L109.218 366.24C109.946 365.885 110.823 365.549 111.85 365.232C112.876 364.915 113.996 364.756 115.21 364.756C116.348 364.756 117.366 364.924 118.262 365.26C119.158 365.577 119.867 366.044 120.39 366.66C120.912 367.276 121.174 368.032 121.174 368.928V378H117.114V369.88C117.114 369.563 117.058 369.292 116.946 369.068C116.852 368.825 116.703 368.62 116.498 368.452C116.292 368.284 116.031 368.163 115.714 368.088C115.415 368.013 115.07 367.976 114.678 367.976C114.099 367.976 113.53 368.041 112.97 368.172C112.428 368.303 111.952 368.461 111.542 368.648C111.131 368.816 110.832 368.956 110.646 369.068ZM124.34 356.16H128.596V378H124.34V356.16ZM131.858 356.16H135.918V378H131.858V356.16ZM140.594 365.12H145.662L140.146 370.44L146.222 378H141.238L135.078 370.44L140.594 365.12ZM146.88 371.56C146.88 370.197 147.198 369.012 147.832 368.004C148.467 366.996 149.344 366.212 150.464 365.652C151.584 365.092 152.844 364.812 154.244 364.812C155.644 364.812 156.895 365.092 157.996 365.652C159.116 366.212 159.994 366.996 160.628 368.004C161.282 369.012 161.608 370.197 161.608 371.56C161.608 372.904 161.282 374.08 160.628 375.088C159.994 376.096 159.116 376.88 157.996 377.44C156.895 378 155.644 378.28 154.244 378.28C152.844 378.28 151.584 378 150.464 377.44C149.344 376.88 148.467 376.096 147.832 375.088C147.198 374.08 146.88 372.904 146.88 371.56ZM151.22 371.56C151.22 372.232 151.36 372.811 151.64 373.296C151.92 373.763 152.284 374.127 152.732 374.388C153.18 374.649 153.684 374.78 154.244 374.78C154.786 374.78 155.28 374.649 155.728 374.388C156.195 374.127 156.559 373.763 156.82 373.296C157.1 372.811 157.24 372.232 157.24 371.56C157.24 370.888 157.1 370.309 156.82 369.824C156.559 369.339 156.195 368.965 155.728 368.704C155.28 368.443 154.786 368.312 154.244 368.312C153.684 368.312 153.18 368.443 152.732 368.704C152.284 368.965 151.92 369.339 151.64 369.824C151.36 370.309 151.22 370.888 151.22 371.56ZM172.524 370.16C172.524 369.395 172.375 368.807 172.076 368.396C171.796 367.985 171.32 367.78 170.648 367.78C170.2 367.78 169.808 367.873 169.472 368.06C169.136 368.247 168.875 368.517 168.688 368.872C168.501 369.227 168.408 369.656 168.408 370.16V378H164.152V365.12H168.408V367.052C168.781 366.343 169.285 365.792 169.92 365.4C170.573 365.008 171.376 364.812 172.328 364.812C173.933 364.812 175.1 365.241 175.828 366.1C176.556 366.959 176.92 368.163 176.92 369.712V378H172.524V370.16ZM186.809 378.28C185.316 378.28 184.019 378.009 182.917 377.468C181.835 376.908 180.995 376.124 180.397 375.116C179.8 374.108 179.501 372.923 179.501 371.56C179.501 370.179 179.791 368.984 180.369 367.976C180.948 366.968 181.779 366.193 182.861 365.652C183.963 365.111 185.26 364.84 186.753 364.84C188.247 364.84 189.507 365.101 190.533 365.624C191.56 366.128 192.344 366.865 192.885 367.836C193.427 368.807 193.697 369.983 193.697 371.364C193.697 371.569 193.697 371.775 193.697 371.98C193.697 372.167 193.679 372.325 193.641 372.456H181.881V370.104H189.833L188.825 371.392C188.919 371.261 188.993 371.103 189.049 370.916C189.124 370.711 189.161 370.543 189.161 370.412C189.161 369.852 189.059 369.367 188.853 368.956C188.648 368.545 188.359 368.228 187.985 368.004C187.612 367.78 187.173 367.668 186.669 367.668C186.035 367.668 185.503 367.808 185.073 368.088C184.644 368.368 184.317 368.797 184.093 369.376C183.888 369.936 183.776 370.645 183.757 371.504C183.757 372.288 183.869 372.96 184.093 373.52C184.317 374.08 184.653 374.509 185.101 374.808C185.549 375.088 186.1 375.228 186.753 375.228C187.5 375.228 188.135 375.088 188.657 374.808C189.199 374.528 189.628 374.108 189.945 373.548L193.725 374.472C193.053 375.741 192.139 376.693 190.981 377.328C189.843 377.963 188.452 378.28 186.809 378.28ZM204.68 370.16C204.68 369.395 204.531 368.807 204.232 368.396C203.952 367.985 203.476 367.78 202.804 367.78C202.356 367.78 201.964 367.873 201.628 368.06C201.292 368.247 201.031 368.517 200.844 368.872C200.658 369.227 200.564 369.656 200.564 370.16V378H196.308V365.12H200.564V367.052C200.938 366.343 201.442 365.792 202.076 365.4C202.73 365.008 203.532 364.812 204.484 364.812C206.09 364.812 207.256 365.241 207.984 366.1C208.712 366.959 209.076 368.163 209.076 369.712V378H204.68V370.16Z" fill="white"/>
<path d="M94.6025 31V27.108H104.487V31H94.6025ZM94.6025 15.292V11.4H104.487V15.292H94.6025ZM94.6025 22.6V18.792H103.927V22.6H94.6025ZM91.4665 11.4H96.0025V31H91.4665V11.4ZM116.29 23.16C116.29 22.3947 116.14 21.8067 115.842 21.396C115.562 20.9853 115.086 20.78 114.414 20.78C113.966 20.78 113.574 20.8733 113.238 21.06C112.902 21.2467 112.64 21.5173 112.454 21.872C112.267 22.2267 112.174 22.656 112.174 23.16V31H107.918V18.12H112.174V20.052C112.547 19.3427 113.051 18.792 113.686 18.4C114.339 18.008 115.142 17.812 116.094 17.812C117.699 17.812 118.866 18.2413 119.594 19.1C120.322 19.9587 120.686 21.1627 120.686 22.712V31H116.29V23.16ZM122.511 18.12H131.135V21.62H122.511V18.12ZM124.779 13.64H128.839V31H124.779V13.64ZM137.109 18.12V31H132.937V18.12H137.109ZM140.833 22.488C140.609 22.264 140.366 22.0867 140.105 21.956C139.862 21.8253 139.554 21.76 139.181 21.76C138.77 21.76 138.406 21.872 138.089 22.096C137.772 22.32 137.529 22.6467 137.361 23.076C137.193 23.5053 137.109 24.028 137.109 24.644L136.101 23.16C136.101 22.1333 136.297 21.2187 136.689 20.416C137.1 19.6133 137.632 18.9787 138.285 18.512C138.938 18.0453 139.62 17.812 140.329 17.812C140.796 17.812 141.244 17.9053 141.673 18.092C142.102 18.2787 142.429 18.54 142.653 18.876L140.833 22.488ZM147.725 26.968C147.725 27.304 147.809 27.5933 147.977 27.836C148.145 28.06 148.369 28.2373 148.649 28.368C148.929 28.48 149.237 28.536 149.573 28.536C150.058 28.536 150.506 28.4333 150.917 28.228C151.328 28.0227 151.664 27.7147 151.925 27.304C152.186 26.8933 152.317 26.3893 152.317 25.792L152.765 27.472C152.765 28.2933 152.541 28.9933 152.093 29.572C151.645 30.132 151.066 30.5613 150.357 30.86C149.648 31.14 148.882 31.28 148.061 31.28C147.24 31.28 146.474 31.1307 145.765 30.832C145.074 30.5147 144.514 30.048 144.085 29.432C143.674 28.816 143.469 28.0693 143.469 27.192C143.469 25.96 143.908 24.9893 144.785 24.28C145.662 23.552 146.904 23.188 148.509 23.188C149.293 23.188 149.993 23.2627 150.609 23.412C151.244 23.5613 151.785 23.748 152.233 23.972C152.681 24.196 153.017 24.4293 153.241 24.672V26.548C152.793 26.212 152.27 25.96 151.673 25.792C151.094 25.6053 150.478 25.512 149.825 25.512C149.321 25.512 148.92 25.568 148.621 25.68C148.322 25.792 148.098 25.96 147.949 26.184C147.8 26.3893 147.725 26.6507 147.725 26.968ZM145.849 22.068L144.421 19.24C145.149 18.8853 146.026 18.5493 147.053 18.232C148.08 17.9147 149.2 17.756 150.413 17.756C151.552 17.756 152.569 17.924 153.465 18.26C154.361 18.5773 155.07 19.044 155.593 19.66C156.116 20.276 156.377 21.032 156.377 21.928V31H152.317V22.88C152.317 22.5627 152.261 22.292 152.149 22.068C152.056 21.8253 151.906 21.62 151.701 21.452C151.496 21.284 151.234 21.1627 150.917 21.088C150.618 21.0133 150.273 20.976 149.881 20.976C149.302 20.976 148.733 21.0413 148.173 21.172C147.632 21.3027 147.156 21.4613 146.745 21.648C146.334 21.816 146.036 21.956 145.849 22.068ZM167.915 23.16C167.915 22.3947 167.765 21.8067 167.467 21.396C167.187 20.9853 166.711 20.78 166.039 20.78C165.591 20.78 165.199 20.8733 164.863 21.06C164.527 21.2467 164.265 21.5173 164.079 21.872C163.892 22.2267 163.799 22.656 163.799 23.16V31H159.543V18.12H163.799V20.052C164.172 19.3427 164.676 18.792 165.311 18.4C165.964 18.008 166.767 17.812 167.719 17.812C169.324 17.812 170.491 18.2413 171.219 19.1C171.947 19.9587 172.311 21.1627 172.311 22.712V31H167.915V23.16ZM179.204 24.56C179.204 25.2507 179.353 25.848 179.652 26.352C179.951 26.8373 180.361 27.22 180.884 27.5C181.425 27.78 182.004 27.92 182.62 27.92C183.143 27.92 183.637 27.8453 184.104 27.696C184.589 27.528 185.028 27.304 185.42 27.024C185.831 26.744 186.167 26.3987 186.428 25.988V30.104C185.98 30.4587 185.42 30.748 184.748 30.972C184.076 31.1773 183.255 31.28 182.284 31.28C180.865 31.28 179.587 31 178.448 30.44C177.328 29.88 176.441 29.096 175.788 28.088C175.153 27.08 174.836 25.904 174.836 24.56C174.836 23.1973 175.153 22.0213 175.788 21.032C176.441 20.024 177.328 19.24 178.448 18.68C179.587 18.12 180.865 17.84 182.284 17.84C183.255 17.84 184.076 17.952 184.748 18.176C185.42 18.3813 185.98 18.6427 186.428 18.96V23.104C186.167 22.6933 185.821 22.348 185.392 22.068C184.981 21.788 184.533 21.5733 184.048 21.424C183.563 21.2747 183.087 21.2 182.62 21.2C182.004 21.2 181.425 21.3493 180.884 21.648C180.361 21.9467 179.951 22.348 179.652 22.852C179.353 23.356 179.204 23.9253 179.204 24.56ZM196.036 31.28C194.543 31.28 193.245 31.0093 192.144 30.468C191.061 29.908 190.221 29.124 189.624 28.116C189.027 27.108 188.728 25.9227 188.728 24.56C188.728 23.1787 189.017 21.984 189.596 20.976C190.175 19.968 191.005 19.1933 192.088 18.652C193.189 18.1107 194.487 17.84 195.98 17.84C197.473 17.84 198.733 18.1013 199.76 18.624C200.787 19.128 201.571 19.8653 202.112 20.836C202.653 21.8067 202.924 22.9827 202.924 24.364C202.924 24.5693 202.924 24.7747 202.924 24.98C202.924 25.1667 202.905 25.3253 202.868 25.456H191.108V23.104H199.06L198.052 24.392C198.145 24.2613 198.22 24.1027 198.276 23.916C198.351 23.7107 198.388 23.5427 198.388 23.412C198.388 22.852 198.285 22.3667 198.08 21.956C197.875 21.5453 197.585 21.228 197.212 21.004C196.839 20.78 196.4 20.668 195.896 20.668C195.261 20.668 194.729 20.808 194.3 21.088C193.871 21.368 193.544 21.7973 193.32 22.376C193.115 22.936 193.003 23.6453 192.984 24.504C192.984 25.288 193.096 25.96 193.32 26.52C193.544 27.08 193.88 27.5093 194.328 27.808C194.776 28.088 195.327 28.228 195.98 28.228C196.727 28.228 197.361 28.088 197.884 27.808C198.425 27.528 198.855 27.108 199.172 26.548L202.952 27.472C202.28 28.7413 201.365 29.6933 200.208 30.328C199.069 30.9627 197.679 31.28 196.036 31.28Z" fill="white"/>
<path d="M63.5 298.5L35.5 250L8 298.5L18.5 304L35.5 274L53 304L63.5 298.5Z" fill="white" stroke="white"/>
<path d="M63.5 108.5L35.5 60L8 108.5L18.5 114L35.5 84L53 114L63.5 108.5Z" fill="white" stroke="white"/>
<path d="M63.5 384.5L35.5 336L8 384.5L18.5 390L35.5 360L53 390L63.5 384.5Z" fill="white" stroke="white"/>
<path d="M33.1132 446C27.682 445.735 23.5216 450.979 19.1872 456.593C13.8779 463.479 6.35781 473.207 5.26114 488.391C4.80854 494.536 3.74669 509.525 13.9649 520.172C15.6882 521.973 22.7209 529.3 33.1132 529C43.3836 528.7 49.9114 521.125 52.2614 518.406C60.3385 509.066 60.7911 498.032 60.9652 493.688C61.4352 481.541 56.7874 472.59 54.0022 467.204C53.1144 465.492 50.3466 460.336 45.2984 454.845C40.6158 449.743 37.378 446.212 33.1132 446ZM41.9562 495.913C41.9562 496.337 41.9214 496.601 41.8866 497.131C41.7647 498.844 41.5384 500.327 41.2251 501.474C41.2773 502.075 41.1729 502.675 40.8769 503.169C40.7725 503.523 40.5984 503.84 40.3547 504.105C40.1632 504.617 39.8151 505.041 39.3277 505.306C38.9447 505.888 38.3006 506.294 37.378 506.294C37.3258 506.294 37.291 506.277 37.2388 506.277C36.9254 506.436 36.5425 506.542 36.0899 506.542C36.0899 506.542 36.0899 506.542 36.0725 506.542C35.7243 506.754 35.3065 506.895 34.7843 506.895C34.7321 506.895 34.6798 506.895 34.6102 506.895C34.4187 506.93 34.2273 506.965 34.001 506.965C33.6702 506.965 33.3743 506.895 33.1132 506.806C33.0087 506.806 32.9217 506.859 32.7998 506.859C32.5561 506.859 32.1906 507.018 31.9817 506.965C31.9469 506.965 32.0339 506.789 31.9817 506.806C31.6335 506.895 31.2854 506.912 30.9372 506.806C30.8502 506.806 30.7458 506.789 30.6587 506.771C30.5891 506.771 30.5195 506.771 30.4324 506.771C30.2932 506.771 30.1713 506.754 30.0494 506.736C29.8754 506.771 29.7187 506.824 29.5272 506.824C29.1094 506.824 28.7439 506.718 28.4306 506.559C28.3783 506.559 28.3261 506.559 28.2739 506.559C27.8735 506.559 27.5254 506.489 27.212 506.347C27.125 506.347 27.0554 506.312 26.9683 506.294C26.272 506.242 25.7324 505.959 25.332 505.553C24.9665 505.288 24.7053 504.935 24.5139 504.547C24.1831 504.158 23.922 503.699 23.835 503.187C23.3476 502.198 22.8601 500.821 22.6861 498.985V491.923C22.7905 488.745 23.2605 484.419 24.862 479.546C26.0631 475.874 27.5776 472.89 28.9528 470.612C29.005 470.524 29.0398 470.453 29.092 470.383C29.4054 469.588 30.1191 468.97 31.2332 468.952C31.4421 468.899 31.6858 468.846 31.9469 468.846C32.1384 468.846 32.3124 468.864 32.4865 468.899C32.5387 468.899 32.5735 468.864 32.6258 468.864C32.6954 468.864 32.765 468.899 32.8347 468.899C32.8869 468.899 32.9391 468.899 33.0087 468.899C33.8791 468.899 34.5232 469.253 34.9758 469.782C35.2891 469.994 35.5676 470.277 35.8462 470.647C36.5425 471.142 37.1517 472.113 37.6565 473.419C37.9873 473.967 38.2832 474.655 38.5617 475.414C39.6932 478.416 40.7551 482.088 41.3992 486.255C41.3992 486.255 42.1477 491.146 41.9736 495.948L41.9562 495.913Z" fill="white"/>
<path d="M70.2209 726H4V792.221H70.2209V726Z" fill="white" stroke="white" stroke-miterlimit="10"/>
</svg>
