<svg width="1406" height="1565" viewBox="0 0 1406 1565" fill="none" xmlns="http://www.w3.org/2000/svg">
<path d="M96.9603 500.025H33.1047V0H96.9603V500.025ZM181.282 310.826L349.927 500.025H272.154L105.147 310.826L268.061 139.409H345.015L181.282 310.826Z" fill="#2D2547"/>
<path d="M654.971 435.68L638.147 478.131H947.462L930.638 434.563L794.746 72.6133C784.392 104.638 737.801 225.66 654.971 435.68ZM530.727 752.944H418.131L722.27 0H867.221L1166.18 752.944H1053.59L977.229 555.213H608.38L530.727 752.944Z" fill="#2D2547"/>
<path d="M200.812 663.496H280.511V863.448H193.099C153.678 863.448 123.684 854.28 103.117 835.945C81.9779 817.115 71.4084 793.081 71.4084 763.844C71.4084 696.946 114.543 663.496 200.812 663.496ZM280.511 914.737V1112.46H349.927V611.464H205.097C138.253 611.464 87.6911 625.092 53.4119 652.347C18.5614 679.602 1.13616 717.263 1.13616 765.331C2.2788 800.018 12.8482 829.503 32.8444 853.785C52.8406 878.066 81.1209 895.163 117.685 905.074L-34 1112.46H49.127L190.529 914.737H280.511Z" fill="#2D2547"/>
<path d="M1241.83 36.3318H1186.11V175.95H1247.23C1274.79 175.95 1295.76 169.548 1310.14 156.746C1324.92 143.597 1332.3 126.815 1332.3 106.4C1332.3 59.688 1302.15 36.3318 1241.83 36.3318ZM1186.11 211.763V349.824H1137.58V0H1238.84C1285.57 0 1320.92 9.51548 1344.89 28.5464C1369.25 47.5774 1381.43 73.8747 1381.43 107.438C1380.64 131.66 1373.25 152.248 1359.27 169.202C1345.29 186.157 1325.51 198.095 1299.95 205.015L1406 349.824H1347.88L1249.02 211.763H1186.11Z" fill="#2D2547"/>
<path d="M1060.58 1149.53C1060.58 1209.26 1043 1254.51 1007.85 1285.29C973.236 1316.07 924.774 1331.46 862.464 1331.46C801.22 1331.46 753.29 1316.53 718.673 1286.67C684.057 1256.35 666.749 1212.47 666.749 1155.04V861.477H731.455V1154.36C731.455 1197.08 743.171 1228.55 766.604 1248.77C790.569 1268.98 822.522 1279.09 862.464 1279.09C951.401 1279.09 995.87 1236.36 995.87 1150.91V861.477H1060.58V1149.53Z" fill="#2D2547"/>
<path d="M410.954 1228.34C457.207 1226.71 493.708 1239.2 520.458 1265.8C546.688 1292.42 560.813 1327.36 562.834 1370.64C565.065 1418.42 555.786 1459.39 534.997 1493.53L467.177 1495.92C494.223 1462.01 506.641 1421.38 504.431 1374.05C503.105 1345.65 494.787 1323.59 479.477 1307.88C464.168 1292.16 442.741 1284.79 415.197 1285.76C403.764 1286.16 393.724 1288.55 385.079 1292.92C375.893 1296.85 367.872 1303.46 361.018 1312.73C353.622 1321.57 347.775 1330.13 343.477 1338.41C338.638 1346.26 332.896 1357.07 326.252 1370.85C324.819 1373.61 322.93 1377.74 320.584 1383.24C311.615 1402.97 304.254 1418.13 298.502 1428.72C292.729 1438.86 284.192 1451.12 272.891 1465.52C261.05 1479.48 247.221 1489.91 231.405 1496.78C215.59 1503.66 197.028 1507.48 175.72 1508.23C131.026 1509.8 95.564 1497.28 69.3343 1470.66C42.5638 1443.61 28.1997 1409.12 26.2419 1367.2C24.4104 1327.98 30.9079 1294.34 45.7344 1266.27L111.996 1263.94C92.4923 1292.17 83.635 1325.44 85.4244 1363.76C86.7086 1391.26 95.2652 1412.86 111.094 1428.55C126.404 1444.27 146.012 1451.71 169.918 1450.86C182.391 1450.42 193.469 1448 203.154 1443.6C212.818 1438.74 221.815 1430.75 230.144 1419.62C237.954 1408.5 244.019 1399.03 248.338 1391.21C252.138 1383.4 257.817 1371.23 265.374 1354.71C272.454 1339.11 278.143 1327.17 282.441 1318.89C286.22 1310.63 292.751 1300.01 302.036 1287.04C310.78 1273.64 319.682 1263.62 328.742 1256.98C337.261 1249.9 348.941 1243.62 363.78 1238.13C378.079 1232.21 393.804 1228.95 410.954 1228.34Z" fill="#2D2547"/>
<path d="M839.461 1565H1406V661.854H1281.3V1467.18H839.461V1565Z" fill="#2D2547"/>
</svg>
