<svg width="620" height="654" viewBox="0 0 620 654" fill="none" xmlns="http://www.w3.org/2000/svg">
<g clip-path="url(#clip0_355_1125)">
<path d="M0 1.28867C12.8898 216.709 25.7796 432.136 38.6694 647.557C65.0936 649.702 91.5177 651.854 117.942 654C273.696 511.17 429.443 368.347 585.198 225.517L620 173.326L602.599 111.47C597.23 112.327 591.855 113.19 586.487 114.047C583.477 118.345 580.473 122.636 577.464 126.934C563.072 122.424 548.674 117.913 534.283 113.403C530.203 109.324 526.117 105.239 522.037 101.161C520.961 97.9389 519.891 94.7172 518.815 91.4956H509.148C507.859 93.6412 506.57 95.7933 505.281 97.9389C497.547 98.7959 489.813 99.6593 482.079 100.516C479.288 102.662 476.491 104.814 473.701 106.96C464.465 101.805 455.223 96.6502 445.988 91.4956C444.699 87.4169 443.41 83.3318 442.121 79.2532C438.685 78.6089 435.244 77.9645 431.809 77.3202C430.952 79.4658 430.088 81.6179 429.231 83.7635C425.796 87.6296 422.354 91.4956 418.919 95.3616C406.886 92.3525 394.86 89.3499 382.827 86.3409C381.107 83.1192 379.392 79.8975 377.672 76.6759C370.369 74.9555 363.061 73.2416 355.759 71.5212C355.198 74.5624 353.767 76.9529 351.892 77.3202C349.037 77.8743 346.298 73.5186 345.447 72.1655C341.271 65.5224 343.984 60.5353 340.936 58.6345C337.971 56.7852 334.6 61.0121 327.401 60.5675C323.831 60.3484 320.956 59.0791 319.023 57.9901C313.222 57.7775 307.422 57.5584 301.622 57.3458C292.811 54.3368 284.008 51.3342 275.198 48.3251C268.965 50.2581 262.74 52.1911 256.507 54.1241C253.717 52.4038 250.92 50.6898 248.129 48.9695C246.067 55.4128 241.123 59.7621 235.884 59.9232C233.112 60.0069 230.844 58.8987 229.439 57.9901C229.007 52.6228 228.581 47.2491 228.15 41.8818C225.378 41.347 221.589 41.1215 218.482 43.1704C215.608 45.0648 215.44 47.5004 212.682 48.9695C208.937 50.9669 204.316 49.1112 202.37 48.3251C193.985 44.9552 195.113 38.9629 186.902 34.7941C180.909 31.7528 178.369 33.9565 174.657 30.2837C171.254 26.9139 171.718 23.4022 168.212 21.2631C165.293 19.4782 161.735 19.9486 159.189 20.6187C156.611 24.053 154.033 27.4938 151.455 30.9281C149.058 32.8482 144.392 35.9861 137.921 36.7271C135.349 37.0235 131.611 37.4552 127.609 35.4384C124.561 33.9049 122.737 31.6433 121.809 30.2837H92.8067C90.3834 26.959 86.4584 22.7193 80.5613 20.6187C76.3077 19.1045 74.8125 20.0517 66.3825 19.33C63.8497 19.1174 55.4198 18.2991 45.7588 15.464C45.7588 15.464 40.2033 13.8339 30.9356 10.3094C32.8175 10.9215 26.7721 7.90599 25.1351 9.02069C23.2597 10.3029 26.031 16.2566 25.1351 16.7527C24.3231 17.2037 20.7848 13.0091 12.2453 0C8.1657 0.431704 4.07963 0.856965 0 1.28867Z" fill="#241945"/>
<path d="M68.774 290.023C61.5247 306.882 66.9495 326.474 79.3007 339.451C92.2653 353.068 110.873 359.148 129.093 361.291C140.782 362.665 152.568 362.48 164.314 362.285C166.211 362.253 168.035 360.636 167.946 358.647C167.857 356.658 166.348 354.976 164.314 355.008C154.247 355.17 144.164 355.332 134.122 354.507C132.895 354.41 131.668 354.289 130.449 354.159C129.932 354.103 129.416 354.046 128.907 353.981C128.52 353.933 128.132 353.884 127.753 353.836C127.018 353.747 127.979 353.876 127.179 353.755C124.742 353.407 122.312 352.995 119.906 352.485C115.773 351.62 111.696 350.48 107.732 349.033C106.82 348.701 105.908 348.346 105.004 347.982C104.802 347.901 104.6 347.82 104.407 347.731C105.052 347.998 104.39 347.723 104.229 347.65C103.68 347.416 103.139 347.173 102.598 346.922C100.742 346.065 98.9172 345.127 97.1331 344.109C95.3491 343.09 93.5489 341.942 91.8455 340.729C91.45 340.446 91.0625 340.163 90.675 339.88C90.6992 339.896 89.8678 339.257 90.2795 339.581C90.6912 339.904 89.8678 339.249 89.892 339.273C89.0605 338.602 88.2371 337.915 87.446 337.195C85.9283 335.829 84.4914 334.389 83.1432 332.861C82.788 332.457 82.4409 332.053 82.1019 331.64C81.9727 331.479 81.8355 331.317 81.7063 331.155C81.7225 331.171 81.0847 330.363 81.4076 330.783C81.7305 331.204 81.1089 330.387 81.1251 330.403C81.004 330.233 80.8748 330.064 80.7537 329.894C80.4147 329.425 80.0918 328.948 79.777 328.471C78.6468 326.765 77.6296 324.986 76.7416 323.142C76.556 322.762 76.3784 322.382 76.2089 322.002C76.0797 321.719 75.9505 321.428 75.8294 321.137C75.8859 321.266 76.0878 321.784 75.8294 321.137C75.442 320.167 75.0787 319.18 74.7477 318.186C74.0292 316.002 73.4803 313.771 73.117 311.507C73.0847 311.305 73.0524 311.094 73.0202 310.892C72.8587 309.865 73.1009 311.66 72.9879 310.625C72.9233 310.059 72.8668 309.493 72.8264 308.927C72.7457 307.844 72.7053 306.76 72.7134 305.677C72.7215 304.593 72.778 303.413 72.891 302.289C72.9152 302.03 72.9475 301.78 72.9717 301.521C73.004 301.246 72.9959 301.319 72.9394 301.723C72.9637 301.569 72.9798 301.416 73.004 301.262C73.0928 300.704 73.1897 300.146 73.3027 299.596C73.5287 298.489 73.8032 297.389 74.1423 296.305C74.2956 295.812 74.4571 295.319 74.6347 294.834C74.7235 294.591 74.8123 294.349 74.9092 294.106C74.9657 293.953 75.4016 292.918 75.0787 293.678C75.8294 291.931 75.6518 289.691 73.779 288.697C72.2129 287.872 69.6135 288.139 68.8062 289.999L68.774 290.023Z" fill="#6B54B0"/>
<g clip-path="url(#clip1_355_1125)">
<path d="M82.6309 580.166H116.323C116.166 588.36 116.005 596.56 115.848 604.754H126.763V570.236H72.1911C71.8779 581.585 71.5599 592.933 71.242 604.281C75.1949 604.437 79.1525 604.598 83.1054 604.754C82.9488 596.56 82.7875 588.36 82.6309 580.166Z" fill="#FDFBFB" stroke="white" stroke-miterlimit="10"/>
</g>
<g filter="url(#filter0_d_355_1125)">
<path d="M412.739 94.4799C401.619 102.164 390.29 109.997 381.402 120.352C372.653 130.551 366.336 143.381 366.012 157.079C365.842 164.021 367.51 170.667 370.413 176.922C373.317 183.177 376.985 188.354 380.383 193.993C382.082 196.812 383.665 199.686 385.032 202.684C385.34 203.356 385.634 204.035 385.927 204.715C385.672 204.113 386.051 205.019 386.12 205.199C386.298 205.644 386.468 206.081 386.638 206.534C387.201 208.018 387.719 209.525 388.19 211.04C389.132 214.078 389.897 217.178 390.476 220.31C390.615 221.044 390.738 221.778 390.854 222.512C390.916 222.879 390.97 223.246 391.024 223.613C391.039 223.715 391.132 224.378 391.07 223.933C391.008 223.488 391.132 224.433 391.132 224.417C391.325 226.003 391.472 227.596 391.58 229.189C391.788 232.383 391.812 235.585 391.657 238.779C391.58 240.372 391.456 241.973 391.286 243.558C391.248 243.925 391.202 244.3 391.163 244.667C391.14 244.878 391.008 245.83 391.101 245.159C390.978 246.002 390.854 246.845 390.715 247.681C390.182 250.828 389.472 253.944 388.568 257.005C388.12 258.536 387.626 260.051 387.086 261.55C386.831 262.245 386.576 262.948 386.298 263.635C386.144 264.034 385.981 264.424 385.819 264.814C385.842 264.76 386.028 264.338 385.866 264.705C385.757 264.947 385.657 265.189 385.549 265.439C384.908 266.9 384.228 268.336 383.503 269.75C382.669 271.382 383.031 273.639 384.746 274.56C386.344 275.412 388.607 275.045 389.503 273.303C395.48 261.628 398.576 248.564 398.7 235.428C398.823 222.317 395.966 209.189 390.229 197.421C387.371 191.556 383.642 186.199 380.306 180.608C378.622 177.789 377.078 174.899 375.749 171.893C375.587 171.526 375.757 171.916 375.788 171.979C375.703 171.776 375.626 171.572 375.549 171.369C375.41 171.01 375.278 170.659 375.147 170.3C374.846 169.48 374.576 168.644 374.329 167.801C373.881 166.254 373.533 164.685 373.286 163.099C373.263 162.943 373.24 162.787 373.217 162.631C373.317 163.31 373.232 162.756 373.217 162.623C373.178 162.256 373.139 161.889 373.109 161.522C373.039 160.733 372.993 159.945 372.977 159.156C372.939 157.571 372.985 155.985 373.124 154.408C373.163 153.986 373.209 153.564 373.255 153.143C373.255 153.096 373.325 152.573 373.271 152.979C373.217 153.424 373.302 152.76 373.317 152.659C373.433 151.87 373.572 151.089 373.726 150.308C374.043 148.738 374.437 147.184 374.9 145.654C375.363 144.123 375.919 142.6 376.514 141.101C376.553 140.992 376.777 140.484 376.537 141.046C376.599 140.898 376.661 140.75 376.73 140.601C376.877 140.258 377.031 139.914 377.194 139.57C377.549 138.789 377.927 138.008 378.321 137.243C379.788 134.377 381.487 131.628 383.379 129.036C383.472 128.903 383.564 128.778 383.665 128.653C383.719 128.583 384.113 128.052 383.873 128.372C383.649 128.676 383.981 128.231 383.997 128.208C384.136 128.028 384.275 127.857 384.414 127.677C384.939 127.021 385.472 126.365 386.012 125.725C387.093 124.444 388.221 123.202 389.379 121.992C391.696 119.579 394.144 117.298 396.684 115.12C397.958 114.026 399.248 112.964 400.561 111.926C400.87 111.684 401.171 111.442 401.48 111.199C401.024 111.559 401.85 110.918 401.966 110.825C402.677 110.278 403.387 109.739 404.105 109.2C406.746 107.225 409.441 105.311 412.144 103.429C413.519 102.469 414.893 101.524 416.268 100.571C417.766 99.5325 418.584 97.4396 417.511 95.7607C416.553 94.2535 414.36 93.3945 412.754 94.5034L412.739 94.4799Z" fill="#6B54B0"/>
</g>
<path d="M385.77 268.361C385.375 268.701 384.979 269.04 384.567 269.364C384.325 269.558 384.083 269.752 383.833 269.946C383.946 269.857 384.382 269.533 383.833 269.946C382.921 270.625 382 271.28 381.048 271.903C379.288 273.059 377.464 274.11 375.583 275.056C374.662 275.525 373.742 275.962 372.798 276.382C372.563 276.487 372.329 276.592 372.095 276.697C371.457 276.98 371.982 276.746 372.111 276.697C371.538 276.94 370.965 277.166 370.384 277.393C368.349 278.185 366.275 278.889 364.184 279.519C355.78 282.05 347.086 283.441 338.416 284.67C329.076 286.004 319.728 287.225 310.485 289.19C300.604 291.292 290.86 294.025 281.326 297.357C270.364 301.197 259.66 305.822 249.359 311.191C247.672 312.073 247.026 314.571 248.059 316.172C249.165 317.894 251.224 318.42 253.032 317.474C257.609 315.089 262.259 312.857 266.981 310.779C267.546 310.528 268.103 310.286 268.669 310.043C268.895 309.946 269.121 309.849 269.347 309.752C270.461 309.275 268.725 310.011 269.839 309.542C271.026 309.041 272.221 308.555 273.423 308.07C275.764 307.132 278.122 306.235 280.487 305.37C290.093 301.868 299.926 298.99 309.896 296.758C319.219 294.672 328.648 293.322 338.109 292.004C346.909 290.775 355.74 289.473 364.305 287.063C374.008 284.338 383.227 280.102 390.904 273.495C392.349 272.25 392.277 269.606 390.904 268.353C389.363 266.938 387.312 267.027 385.77 268.353V268.361Z" fill="#6B54B0"/>
<path d="M252.389 309.477C228.824 321.559 205.268 333.65 181.703 345.732C171.324 351.059 160.722 356.144 150.965 362.582C141.315 368.944 132.859 376.701 126.539 386.479C119.465 397.417 115.117 409.917 111.149 422.266C110.544 424.137 111.853 426.45 113.75 426.892C115.796 427.36 117.693 426.274 118.339 424.27C120.086 418.826 121.909 413.399 124.004 408.08C124.219 407.529 124.443 406.978 124.667 406.427C124.799 406.093 124.94 405.767 125.073 405.433C124.774 406.143 125.23 405.066 125.255 405.016C125.818 403.705 126.398 402.411 127.003 401.116C128.212 398.553 129.512 396.031 130.937 393.585C132.362 391.138 133.894 388.775 135.567 386.504C135.708 386.312 135.849 386.128 135.989 385.936C136.685 385.01 135.542 386.479 136.271 385.577C136.71 385.026 137.157 384.475 137.613 383.932C138.516 382.855 139.452 381.812 140.421 380.801C142.342 378.789 144.388 376.893 146.517 375.107C147.047 374.664 147.586 374.222 148.132 373.787C148.314 373.645 148.497 373.495 148.679 373.353C148.074 373.821 148.985 373.128 149.027 373.094C150.228 372.184 151.454 371.299 152.696 370.439C161.981 364.035 172.144 359.058 182.15 353.923C193.813 347.945 205.467 341.966 217.129 335.979C230.141 329.308 243.146 322.636 256.158 315.965C257.897 315.072 258.544 312.458 257.492 310.821C256.349 309.026 254.253 308.517 252.389 309.477Z" fill="#6B54B0"/>
<path d="M111.202 422.186C102.159 442.345 97.7844 464.673 98.4717 486.759C98.6669 493.08 99.2579 499.398 100.239 505.647C100.533 507.528 102.742 508.909 104.563 508.429C106.563 507.903 107.653 506.118 107.338 504.101C106.907 501.365 106.547 498.613 106.278 495.858C106.219 495.283 106.168 494.707 106.117 494.131C106.01 492.995 106.169 494.864 106.086 493.723C106.061 493.381 106.034 493.031 106.009 492.689C105.916 491.311 105.836 489.922 105.784 488.543C105.57 483.235 105.644 477.923 106.019 472.628C106.394 467.333 107.079 461.829 108.056 456.486C107.918 457.219 108.128 456.098 108.143 456.053C108.197 455.768 108.25 455.484 108.314 455.205C108.434 454.583 108.563 453.959 108.701 453.341C108.993 451.987 109.294 450.639 109.628 449.291C110.257 446.713 110.955 444.153 111.723 441.611C113.496 435.755 115.644 430.024 118.145 424.44C118.931 422.696 117.566 420.337 115.816 419.849C113.749 419.273 112.069 420.326 111.234 422.179L111.202 422.186Z" fill="#6B54B0"/>
<path d="M100.11 504.846C102.717 520.761 105.334 536.681 107.941 552.596C108.674 557.088 109.416 561.578 110.149 566.07C110.404 567.646 112.697 568.596 114.455 568.046C116.466 567.412 117.435 565.845 117.158 564.155C114.551 548.24 111.934 532.321 109.327 516.406C108.593 511.914 107.852 507.424 107.118 502.932C106.863 501.355 104.571 500.406 102.813 500.956C100.802 501.59 99.8324 503.157 100.11 504.846Z" fill="#6B54B0"/>
<path d="M212.515 466.608C223.744 456.453 232.019 442.788 234.037 427.635C234.537 423.891 234.602 420.115 234.174 416.355C233.956 414.471 232.657 412.62 230.542 412.717C228.757 412.797 226.675 414.334 226.909 416.355C227.272 419.525 227.288 422.719 226.973 425.888C226.933 426.276 226.893 426.664 226.844 427.053C226.764 427.748 226.844 427.085 226.86 426.956C226.828 427.15 226.804 427.344 226.772 427.538C226.634 428.419 226.473 429.292 226.287 430.158C225.956 431.726 225.553 433.271 225.076 434.799C224.56 436.456 223.97 438.082 223.308 439.683C223.607 438.963 223.139 440.055 223.058 440.232C222.889 440.612 222.711 440.993 222.533 441.364C222.154 442.165 221.75 442.965 221.339 443.75C220.515 445.302 219.627 446.814 218.683 448.286C218.215 449.014 217.738 449.725 217.238 450.437C216.988 450.792 216.737 451.148 216.479 451.496C216.35 451.674 216.221 451.852 216.092 452.022C216.043 452.086 215.518 452.782 215.777 452.442C216.035 452.102 215.615 452.652 215.559 452.725C215.389 452.943 215.22 453.154 215.042 453.372C214.695 453.8 214.34 454.229 213.985 454.649C213.331 455.418 212.669 456.17 211.983 456.905C210.513 458.49 208.971 460.002 207.373 461.45C205.96 462.727 205.977 465.315 207.373 466.592C208.883 467.983 211.006 467.959 212.507 466.592L212.515 466.608Z" fill="#6B54B0"/>
<path d="M233.979 416.769C233.605 412.764 232.36 408.936 230.05 405.671C227.739 402.406 224.77 399.655 221.41 397.467C214.316 392.856 205.978 390.955 197.721 390.256C178.587 388.649 159.738 394.792 142.663 403.231C133.112 407.951 123.96 413.454 114.817 418.957C113.157 419.95 112.433 422.423 113.507 424.14C114.581 425.856 116.745 426.563 118.518 425.494C126.303 420.808 134.097 416.13 142.134 411.923C144.152 410.862 146.185 409.844 148.244 408.851C149.212 408.389 150.188 407.926 151.164 407.48C151.62 407.27 152.083 407.059 152.547 406.857C152.441 406.908 153.58 406.403 153.149 406.588C152.848 406.723 153.678 406.361 153.751 406.327C157.924 404.543 162.171 402.945 166.507 401.615C170.843 400.286 175.122 399.268 179.515 398.544C180.068 398.452 180.629 398.368 181.182 398.283C180.597 398.368 181.858 398.199 182.069 398.174C183.249 398.031 184.428 397.913 185.608 397.812C187.78 397.636 189.96 397.551 192.14 397.568C194.32 397.585 196.615 397.694 198.835 397.922C199.389 397.981 199.95 398.039 200.503 398.107C200.584 398.115 201.349 398.224 200.942 398.166C200.438 398.09 201.65 398.275 201.561 398.258C202.667 398.435 203.773 398.637 204.872 398.872C206.669 399.251 208.451 399.722 210.192 400.32C210.924 400.572 211.656 400.85 212.372 401.136C212.388 401.136 213.275 401.514 212.746 401.287C212.291 401.094 212.868 401.346 212.982 401.397C213.43 401.599 213.869 401.809 214.308 402.028C216.041 402.903 217.709 403.904 219.279 405.057C219.474 405.2 219.661 405.343 219.856 405.494C220.418 405.915 219.563 405.233 219.897 405.528C220.255 405.839 220.621 406.142 220.971 406.462C221.662 407.101 222.321 407.766 222.94 408.481C223.094 408.658 223.241 408.835 223.387 409.011C223.46 409.095 223.965 409.71 223.615 409.289C223.241 408.835 223.794 409.541 223.818 409.575C223.948 409.76 224.078 409.954 224.2 410.147C224.705 410.921 225.152 411.721 225.543 412.562C225.64 412.764 225.762 412.974 225.819 413.193C225.689 412.756 225.648 412.739 225.803 413.193C225.958 413.647 226.104 414.068 226.226 414.522C226.348 414.977 226.454 415.431 226.543 415.894C226.584 416.104 226.682 416.382 226.665 416.601L226.608 416.163C226.633 416.357 226.649 416.55 226.665 416.744C226.844 418.713 228.219 420.631 230.326 420.53C232.157 420.446 234.182 418.856 233.987 416.744L233.979 416.769Z" fill="#6B54B0"/>
<path d="M227.28 211.534C232.204 227.124 240.277 241.516 250.715 254.066C260.967 266.404 273.625 276.875 287.696 284.581C295.696 288.964 304.196 292.489 312.963 294.996C314.788 295.521 316.999 294.357 317.435 292.457C317.871 290.557 316.854 288.543 314.901 287.977C311.139 286.902 307.425 285.64 303.793 284.193C303.381 284.031 302.969 283.862 302.558 283.692C302.331 283.595 302.097 283.498 301.871 283.409C301.322 283.182 302.662 283.757 301.783 283.368C300.903 282.98 299.966 282.576 299.07 282.164C297.27 281.339 295.494 280.466 293.734 279.552C290.311 277.773 286.969 275.824 283.724 273.73C282.101 272.679 280.503 271.595 278.929 270.472C278.162 269.922 277.403 269.372 276.652 268.806C276.297 268.539 275.942 268.272 275.587 267.997C275.433 267.884 274.901 267.464 275.498 267.933C275.264 267.747 275.03 267.569 274.796 267.383C268.725 262.588 263.098 257.235 257.997 251.413C256.689 249.918 255.421 248.397 254.178 246.845C253.871 246.457 253.565 246.069 253.258 245.672C253.726 246.271 253.08 245.438 252.919 245.228C252.289 244.395 251.668 243.562 251.062 242.713C248.778 239.535 246.638 236.253 244.661 232.865C242.465 229.097 240.463 225.215 238.687 221.237C238.485 220.784 238.283 220.332 238.089 219.879C238.089 219.879 237.702 218.973 237.92 219.491C238.114 219.944 237.742 219.062 237.702 218.965C237.282 217.954 236.887 216.944 236.499 215.925C235.708 213.839 234.973 211.728 234.303 209.594C233.73 207.783 231.752 206.432 229.831 207.055C228.015 207.645 226.683 209.586 227.296 211.534H227.28Z" fill="#6B54B0"/>
<path d="M273.585 267.949C281.173 260.259 288.753 252.473 294.888 243.53C301.024 234.587 304.866 225.498 306.085 215.165C307.207 205.696 305.561 195.484 300.233 187.439C294.792 179.24 286.259 174.065 276.975 171.283C267.256 168.372 256.939 167.879 246.856 167.903C234.852 167.928 222.872 168.874 210.925 169.917C188.766 171.849 166.421 174.17 144.221 171.485C143.882 171.445 143.543 171.405 143.212 171.356C143.252 171.356 142.146 171.219 142.687 171.291C143.228 171.364 142.122 171.211 142.162 171.219C141.823 171.17 141.492 171.122 141.153 171.073C139.918 170.887 138.691 170.693 137.464 170.483C135.074 170.062 132.693 169.585 130.328 169.044C125.638 167.96 121.004 166.618 116.475 164.968C115.377 164.572 114.287 164.152 113.206 163.715C112.947 163.61 112.689 163.505 112.439 163.4C112.285 163.335 111.607 163.052 112.237 163.319C111.623 163.06 111.018 162.793 110.413 162.518C108.201 161.516 106.021 160.432 103.89 159.268C101.759 158.104 99.8778 156.955 97.9484 155.678C96.9394 155.007 95.9384 154.319 94.9616 153.6C94.5176 153.276 94.0736 152.945 93.6296 152.613C93.0645 152.185 93.4601 152.484 93.5731 152.573C93.2259 152.298 92.8788 152.023 92.5317 151.748C90.7154 150.276 88.9717 148.724 87.2926 147.091C85.9283 145.765 83.4984 145.627 82.1584 147.091C80.8183 148.554 80.6972 150.818 82.1584 152.233C96.1805 165.842 114.699 173.596 133.694 177.17C154.965 181.164 176.536 180.137 197.985 178.326C209.811 177.323 221.629 176.143 233.488 175.553C239.341 175.262 245.193 175.116 251.046 175.213C253.573 175.253 256.108 175.334 258.634 175.512C259.764 175.593 260.903 175.682 262.033 175.795C262.574 175.852 263.115 175.908 263.647 175.973C263.865 175.997 264.075 176.022 264.293 176.054C264.511 176.078 264.721 176.111 264.939 176.135C264.654 176.097 264.654 176.097 264.939 176.135C269.403 176.798 273.827 177.76 278.073 179.313C278.614 179.515 279.155 179.717 279.696 179.935C279.865 180.008 280.511 180.291 279.841 179.992C280.083 180.097 280.317 180.202 280.56 180.307C281.649 180.8 282.723 181.342 283.764 181.932C284.669 182.442 285.548 182.983 286.404 183.566C286.832 183.857 287.252 184.164 287.672 184.463C288.479 185.045 287.332 184.172 287.801 184.56C288.083 184.795 288.366 185.013 288.64 185.247C289.431 185.919 290.198 186.63 290.925 187.382C291.288 187.762 291.651 188.142 291.998 188.538C292.208 188.781 292.418 189.015 292.62 189.266C292.66 189.315 293.314 190.147 292.854 189.541C294.202 191.32 295.349 193.244 296.293 195.266C296.43 195.557 296.56 195.84 296.681 196.131C296.398 195.468 296.673 196.123 296.737 196.285C296.947 196.826 297.149 197.376 297.334 197.926C297.706 199.034 298.021 200.158 298.279 201.298C298.521 202.341 298.707 203.392 298.868 204.443C298.755 203.683 298.868 204.403 298.884 204.597C298.917 204.864 298.941 205.13 298.973 205.397C299.038 206.044 299.086 206.683 299.119 207.33C299.232 209.61 299.175 211.898 298.949 214.17C298.917 214.494 298.876 214.825 298.844 215.149C298.763 215.868 298.828 215.302 298.844 215.157C298.771 215.699 298.683 216.24 298.594 216.782C298.384 218.027 298.118 219.256 297.819 220.485C297.254 222.765 296.535 225.005 295.663 227.18C295.583 227.382 295.502 227.585 295.421 227.787C295.736 227.011 295.284 228.094 295.26 228.151C295.01 228.709 294.759 229.258 294.493 229.808C293.92 231.013 293.306 232.202 292.66 233.366C291.433 235.59 290.077 237.748 288.64 239.851C287.05 242.163 285.847 243.748 284.281 245.673C281.004 249.715 277.468 253.54 273.859 257.284C272.075 259.135 270.275 260.963 268.475 262.79C267.135 264.149 267.022 266.599 268.475 267.933C269.928 269.267 272.188 269.38 273.609 267.933L273.585 267.949Z" fill="#6B54B0"/>
<path d="M385.609 272.396C388.902 282.705 396.515 290.937 405.831 296.217C415.147 301.497 426.585 304.221 437.5 303.631C449.536 302.984 461.249 298.553 471.308 292.02C481.649 285.301 490.408 276.463 497.722 266.566C505.818 255.594 512.115 243.263 516.402 230.317C516.926 228.741 517.411 227.156 517.871 225.563C518.396 223.736 517.233 221.52 515.336 221.083C513.439 220.647 511.429 221.666 510.864 223.622C509.96 226.76 508.942 229.857 507.796 232.913C507.231 234.417 506.642 235.905 506.02 237.384C506.254 236.826 505.818 237.845 505.754 237.991C505.609 238.322 505.471 238.646 505.326 238.969C504.963 239.786 504.591 240.594 504.212 241.403C501.443 247.298 498.23 252.982 494.597 258.391C493.726 259.693 492.821 260.979 491.901 262.248C491.473 262.83 491.045 263.413 490.61 263.995C490.464 264.181 490.036 264.739 490.424 264.245C490.166 264.577 489.915 264.9 489.657 265.224C487.905 267.431 486.065 269.582 484.143 271.644C482.222 273.706 480.123 275.792 477.984 277.732C476.894 278.719 475.78 279.681 474.642 280.611C474.117 281.048 473.584 281.468 473.044 281.897C472.503 282.325 473.334 281.686 472.785 282.099C472.454 282.349 472.115 282.608 471.776 282.851C467.191 286.239 462.267 289.174 457.052 291.478C456.842 291.567 455.986 291.931 456.624 291.672C456.285 291.81 455.946 291.955 455.607 292.085C454.929 292.36 454.242 292.618 453.556 292.869C452.224 293.354 450.876 293.791 449.52 294.187C446.751 294.988 443.95 295.57 441.1 296.022C440.672 296.095 441.375 295.974 441.375 295.99C441.358 295.966 440.995 296.039 440.963 296.039C440.64 296.079 440.317 296.111 439.994 296.144C439.348 296.208 438.703 296.265 438.049 296.305C436.749 296.386 435.441 296.427 434.141 296.411C432.842 296.394 431.623 296.346 430.363 296.249C429.758 296.2 429.153 296.144 428.547 296.079C428.224 296.047 427.901 295.998 427.57 295.966C427.134 295.917 427.837 296.006 427.845 296.006C427.796 296.047 427.36 295.934 427.288 295.925C424.753 295.545 422.242 294.987 419.78 294.26C418.577 293.904 417.391 293.516 416.22 293.079C415.615 292.853 415.017 292.618 414.412 292.376C413.758 292.109 414.904 292.594 414.267 292.311C413.928 292.166 413.597 292.012 413.258 291.858C411.03 290.831 408.874 289.651 406.816 288.301C406.291 287.953 405.774 287.605 405.258 287.233C405.04 287.08 404.822 286.918 404.604 286.756C404.345 286.562 403.667 286.012 404.273 286.514C403.352 285.754 402.424 284.993 401.552 284.177C400.68 283.36 399.792 282.463 398.977 281.541C398.598 281.12 398.234 280.684 397.871 280.247C397.71 280.045 397.524 279.851 397.379 279.633C397.435 279.713 397.855 280.271 397.467 279.746C397.363 279.608 397.258 279.463 397.161 279.325C395.756 277.385 394.569 275.315 393.568 273.132C393.52 273.018 393.439 272.889 393.407 272.776C393.407 272.784 393.665 273.431 393.52 273.043C393.415 272.76 393.294 272.477 393.181 272.186C392.963 271.612 392.761 271.029 392.575 270.439C391.994 268.628 390.025 267.278 388.103 267.9C386.295 268.49 384.947 270.431 385.568 272.38L385.609 272.396Z" fill="#6B54B0"/>
<path d="M220.5 510.5L192.5 462L165 510.5L175.5 516L192.5 486L210 516L220.5 510.5Z" fill="#FDFBFB"/>
<path d="M150.2 530.432V529.248H152.008C152.317 529.248 152.579 529.2 152.792 529.104C153.016 529.008 153.187 528.875 153.304 528.704C153.421 528.523 153.48 528.304 153.48 528.048C153.48 527.664 153.352 527.376 153.096 527.184C152.84 526.992 152.477 526.896 152.008 526.896H150.888V533.904H152.264C152.616 533.904 152.931 533.861 153.208 533.776C153.485 533.68 153.704 533.531 153.864 533.328C154.035 533.115 154.12 532.827 154.12 532.464C154.12 532.229 154.072 532.027 153.976 531.856C153.88 531.685 153.747 531.547 153.576 531.44C153.405 531.333 153.208 531.259 152.984 531.216C152.771 531.163 152.531 531.136 152.264 531.136H150.2V529.664H152.568C153.112 529.664 153.64 529.723 154.152 529.84C154.664 529.957 155.128 530.149 155.544 530.416C155.96 530.672 156.291 531.003 156.536 531.408C156.792 531.803 156.92 532.283 156.92 532.848C156.92 533.595 156.739 534.197 156.376 534.656C156.024 535.115 155.523 535.456 154.872 535.68C154.221 535.893 153.453 536 152.568 536H148.184V524.8H152.296C153.075 524.8 153.757 524.907 154.344 525.12C154.941 525.323 155.411 525.637 155.752 526.064C156.104 526.48 156.28 527.008 156.28 527.648C156.28 528.235 156.104 528.736 155.752 529.152C155.411 529.568 154.941 529.888 154.344 530.112C153.757 530.325 153.075 530.432 152.296 530.432H150.2ZM160.335 533.84L160.527 531.776H166.079L166.255 533.84H160.335ZM163.263 528.912L161.695 532.528L161.823 533.12L160.431 536H157.375L163.263 524.096L169.167 536H166.095L164.751 533.232L164.847 532.544L163.263 528.912ZM170.34 524.8H173.044V533.68H177.54V536H170.34V524.8ZM178.793 524.8H181.593V536H178.793V524.8ZM185.401 524.8H188.569L184.025 530.048L188.809 536H185.529L180.809 530.128L185.401 524.8ZM191.408 530.4C191.408 531.061 191.536 531.648 191.792 532.16C192.059 532.661 192.427 533.056 192.896 533.344C193.376 533.632 193.936 533.776 194.576 533.776C195.205 533.776 195.755 533.632 196.224 533.344C196.704 533.056 197.072 532.661 197.328 532.16C197.595 531.648 197.728 531.061 197.728 530.4C197.728 529.739 197.6 529.157 197.344 528.656C197.088 528.144 196.725 527.744 196.256 527.456C195.787 527.168 195.227 527.024 194.576 527.024C193.936 527.024 193.376 527.168 192.896 527.456C192.427 527.744 192.059 528.144 191.792 528.656C191.536 529.157 191.408 529.739 191.408 530.4ZM188.544 530.4C188.544 529.536 188.693 528.747 188.992 528.032C189.301 527.317 189.728 526.699 190.272 526.176C190.816 525.653 191.456 525.253 192.192 524.976C192.928 524.688 193.723 524.544 194.576 524.544C195.44 524.544 196.235 524.688 196.96 524.976C197.696 525.253 198.336 525.653 198.88 526.176C199.424 526.699 199.845 527.317 200.144 528.032C200.443 528.747 200.592 529.536 200.592 530.4C200.592 531.264 200.443 532.059 200.144 532.784C199.856 533.509 199.44 534.139 198.896 534.672C198.363 535.205 197.728 535.621 196.992 535.92C196.256 536.208 195.451 536.352 194.576 536.352C193.691 536.352 192.88 536.208 192.144 535.92C191.408 535.621 190.768 535.205 190.224 534.672C189.691 534.139 189.275 533.509 188.976 532.784C188.688 532.059 188.544 531.264 188.544 530.4ZM210.053 524.8H212.661V536.56L204.917 529.696V536H202.325V524.24L210.053 531.104V524.8ZM216.82 536V533.776H222.468V536H216.82ZM216.82 527.024V524.8H222.468V527.024H216.82ZM216.82 531.2V529.024H222.148V531.2H216.82ZM215.028 524.8H217.62V536H215.028V524.8ZM232.396 524.8H235.004V536.56L227.26 529.696V536H224.668V524.24L232.396 531.104V524.8Z" fill="#FDFBFB"/>
<g clip-path="url(#clip2_355_1125)">
<path d="M46.1619 346C55.0435 352.106 63.9168 358.221 72.7983 364.327C75.2955 359.604 77.7927 354.889 80.2898 350.165C83.0617 350.998 85.8419 351.831 88.6137 352.665C86.6742 356.83 84.7265 360.995 82.787 365.161C89.1714 362.936 95.5475 360.72 101.932 358.496L104.429 368.493C98.0447 369.884 91.6686 371.267 85.2841 372.658C92.5009 377.931 99.7094 383.213 106.926 388.486C105.536 390.986 104.154 393.485 102.764 395.984C94.1657 390.153 85.5588 384.321 76.9603 378.49C74.1884 384.596 71.4083 390.711 68.6364 396.817C65.8645 395.426 63.0844 394.043 60.3125 392.652C62.8097 387.928 65.3069 383.213 67.804 378.49C60.0378 380.431 52.2633 382.38 44.4972 384.321C43.6648 381.547 42.8324 378.764 42 375.99C49.2168 374.049 56.4253 372.1 63.6421 370.159C56.4253 364.877 49.2085 359.604 42 354.331C43.3818 351.548 44.7719 348.774 46.1619 346Z" fill="#FDFBFB" stroke="#FDFBFB" stroke-miterlimit="10"/>
</g>
<path d="M44.2 412.432V411.248H46.008C46.3173 411.248 46.5787 411.2 46.792 411.104C47.016 411.008 47.1867 410.875 47.304 410.704C47.4213 410.523 47.48 410.304 47.48 410.048C47.48 409.664 47.352 409.376 47.096 409.184C46.84 408.992 46.4773 408.896 46.008 408.896H44.888V415.904H46.264C46.616 415.904 46.9307 415.861 47.208 415.776C47.4853 415.68 47.704 415.531 47.864 415.328C48.0347 415.115 48.12 414.827 48.12 414.464C48.12 414.229 48.072 414.027 47.976 413.856C47.88 413.685 47.7467 413.547 47.576 413.44C47.4053 413.333 47.208 413.259 46.984 413.216C46.7707 413.163 46.5307 413.136 46.264 413.136H44.2V411.664H46.568C47.112 411.664 47.64 411.723 48.152 411.84C48.664 411.957 49.128 412.149 49.544 412.416C49.96 412.672 50.2907 413.003 50.536 413.408C50.792 413.803 50.92 414.283 50.92 414.848C50.92 415.595 50.7387 416.197 50.376 416.656C50.024 417.115 49.5227 417.456 48.872 417.68C48.2213 417.893 47.4533 418 46.568 418H42.184V406.8H46.296C47.0747 406.8 47.7573 406.907 48.344 407.12C48.9413 407.323 49.4107 407.637 49.752 408.064C50.104 408.48 50.28 409.008 50.28 409.648C50.28 410.235 50.104 410.736 49.752 411.152C49.4107 411.568 48.9413 411.888 48.344 412.112C47.7573 412.325 47.0747 412.432 46.296 412.432H44.2ZM55.033 412.4C55.033 413.061 55.161 413.648 55.417 414.16C55.6837 414.661 56.0517 415.056 56.521 415.344C57.001 415.632 57.561 415.776 58.201 415.776C58.8303 415.776 59.3797 415.632 59.849 415.344C60.329 415.056 60.697 414.661 60.953 414.16C61.2197 413.648 61.353 413.061 61.353 412.4C61.353 411.739 61.225 411.157 60.969 410.656C60.713 410.144 60.3503 409.744 59.881 409.456C59.4117 409.168 58.8517 409.024 58.201 409.024C57.561 409.024 57.001 409.168 56.521 409.456C56.0517 409.744 55.6837 410.144 55.417 410.656C55.161 411.157 55.033 411.739 55.033 412.4ZM52.169 412.4C52.169 411.536 52.3183 410.747 52.617 410.032C52.9263 409.317 53.353 408.699 53.897 408.176C54.441 407.653 55.081 407.253 55.817 406.976C56.553 406.688 57.3477 406.544 58.201 406.544C59.065 406.544 59.8597 406.688 60.585 406.976C61.321 407.253 61.961 407.653 62.505 408.176C63.049 408.699 63.4703 409.317 63.769 410.032C64.0677 410.747 64.217 411.536 64.217 412.4C64.217 413.264 64.0677 414.059 63.769 414.784C63.481 415.509 63.065 416.139 62.521 416.672C61.9877 417.205 61.353 417.621 60.617 417.92C59.881 418.208 59.0757 418.352 58.201 418.352C57.3157 418.352 56.505 418.208 55.769 417.92C55.033 417.621 54.393 417.205 53.849 416.672C53.3157 416.139 52.8997 415.509 52.601 414.784C52.313 414.059 52.169 413.264 52.169 412.4ZM73.6776 406.8H76.2856V418.56L68.5416 411.696V418H65.9496V406.24L73.6776 413.104V406.8ZM80.4448 409.12V406.8H85.4528V409.12H80.4448ZM80.4448 413.504V411.328H85.2928V413.504H80.4448ZM78.6528 406.8H81.2448V418H78.6528V406.8ZM87.4965 406.8H90.2485V418H87.4965V406.8ZM95.4215 412.928H98.2215L101.726 418H98.5575L95.4215 412.928ZM92.6215 406.8H95.3255V418H92.6215V406.8ZM94.3175 409.088V406.8H96.7015C97.6615 406.8 98.4615 406.955 99.1015 407.264C99.7415 407.573 100.227 408.005 100.558 408.56C100.888 409.104 101.054 409.739 101.054 410.464C101.054 411.179 100.888 411.813 100.558 412.368C100.227 412.912 99.7415 413.339 99.1015 413.648C98.4615 413.957 97.6615 414.112 96.7015 414.112H94.3175V412.016H96.5095C96.8722 412.016 97.1815 411.963 97.4375 411.856C97.7042 411.739 97.9068 411.573 98.0455 411.36C98.1842 411.136 98.2535 410.869 98.2535 410.56C98.2535 410.251 98.1842 409.989 98.0455 409.776C97.9068 409.552 97.7042 409.381 97.4375 409.264C97.1815 409.147 96.8722 409.088 96.5095 409.088H94.3175ZM104.773 418V415.776H110.421V418H104.773ZM104.773 409.024V406.8H110.421V409.024H104.773ZM104.773 413.2V411.024H110.101V413.2H104.773ZM102.981 406.8H105.573V418H102.981V406.8Z" fill="#FDFBFB"/>
<path d="M284 327H243V368H284V327Z" fill="#FDFBFB"/>
<path d="M217.976 381.12V378.8H222.984V381.12H217.976ZM217.976 385.504V383.328H222.824V385.504H217.976ZM216.184 378.8H218.776V390H216.184V378.8ZM227.252 384.4C227.252 385.061 227.38 385.648 227.636 386.16C227.902 386.661 228.27 387.056 228.74 387.344C229.22 387.632 229.78 387.776 230.42 387.776C231.049 387.776 231.598 387.632 232.068 387.344C232.548 387.056 232.916 386.661 233.172 386.16C233.438 385.648 233.572 385.061 233.572 384.4C233.572 383.739 233.444 383.157 233.188 382.656C232.932 382.144 232.569 381.744 232.1 381.456C231.63 381.168 231.07 381.024 230.42 381.024C229.78 381.024 229.22 381.168 228.74 381.456C228.27 381.744 227.902 382.144 227.636 382.656C227.38 383.157 227.252 383.739 227.252 384.4ZM224.388 384.4C224.388 383.536 224.537 382.747 224.836 382.032C225.145 381.317 225.572 380.699 226.116 380.176C226.66 379.653 227.3 379.253 228.036 378.976C228.772 378.688 229.566 378.544 230.42 378.544C231.284 378.544 232.078 378.688 232.804 378.976C233.54 379.253 234.18 379.653 234.724 380.176C235.268 380.699 235.689 381.317 235.988 382.032C236.286 382.747 236.436 383.536 236.436 384.4C236.436 385.264 236.286 386.059 235.988 386.784C235.7 387.509 235.284 388.139 234.74 388.672C234.206 389.205 233.572 389.621 232.836 389.92C232.1 390.208 231.294 390.352 230.42 390.352C229.534 390.352 228.724 390.208 227.988 389.92C227.252 389.621 226.612 389.205 226.068 388.672C225.534 388.139 225.118 387.509 224.82 386.784C224.532 386.059 224.388 385.264 224.388 384.4ZM240.392 384.4C240.392 385.061 240.52 385.648 240.776 386.16C241.043 386.661 241.411 387.056 241.88 387.344C242.36 387.632 242.92 387.776 243.56 387.776C244.19 387.776 244.739 387.632 245.208 387.344C245.688 387.056 246.056 386.661 246.312 386.16C246.579 385.648 246.712 385.061 246.712 384.4C246.712 383.739 246.584 383.157 246.328 382.656C246.072 382.144 245.71 381.744 245.24 381.456C244.771 381.168 244.211 381.024 243.56 381.024C242.92 381.024 242.36 381.168 241.88 381.456C241.411 381.744 241.043 382.144 240.776 382.656C240.52 383.157 240.392 383.739 240.392 384.4ZM237.528 384.4C237.528 383.536 237.678 382.747 237.976 382.032C238.286 381.317 238.712 380.699 239.256 380.176C239.8 379.653 240.44 379.253 241.176 378.976C241.912 378.688 242.707 378.544 243.56 378.544C244.424 378.544 245.219 378.688 245.944 378.976C246.68 379.253 247.32 379.653 247.864 380.176C248.408 380.699 248.83 381.317 249.128 382.032C249.427 382.747 249.576 383.536 249.576 384.4C249.576 385.264 249.427 386.059 249.128 386.784C248.84 387.509 248.424 388.139 247.88 388.672C247.347 389.205 246.712 389.621 245.976 389.92C245.24 390.208 244.435 390.352 243.56 390.352C242.675 390.352 241.864 390.208 241.128 389.92C240.392 389.621 239.752 389.205 239.208 388.672C238.675 388.139 238.259 387.509 237.96 386.784C237.672 386.059 237.528 385.264 237.528 384.4ZM251.309 378.8H254.093V390H251.309V378.8ZM255.309 390H253.101V387.6H255.213C255.64 387.6 256.05 387.547 256.445 387.44C256.85 387.333 257.202 387.157 257.501 386.912C257.81 386.667 258.056 386.341 258.237 385.936C258.418 385.52 258.509 385.008 258.509 384.4C258.509 383.792 258.418 383.285 258.237 382.88C258.056 382.464 257.81 382.133 257.501 381.888C257.202 381.643 256.85 381.467 256.445 381.36C256.05 381.253 255.64 381.2 255.213 381.2H253.101V378.8H255.309C256.536 378.8 257.597 379.029 258.493 379.488C259.389 379.947 260.082 380.592 260.573 381.424C261.064 382.256 261.309 383.248 261.309 384.4C261.309 385.541 261.064 386.533 260.573 387.376C260.082 388.208 259.389 388.853 258.493 389.312C257.597 389.771 256.536 390 255.309 390ZM270.144 384.4C270.144 385.083 270.299 385.675 270.608 386.176C270.918 386.667 271.323 387.04 271.824 387.296C272.336 387.552 272.896 387.68 273.504 387.68C274.038 387.68 274.507 387.611 274.912 387.472C275.318 387.333 275.68 387.152 276 386.928C276.32 386.704 276.603 386.464 276.848 386.208V389.12C276.4 389.472 275.91 389.749 275.376 389.952C274.843 390.155 274.166 390.256 273.344 390.256C272.448 390.256 271.622 390.117 270.864 389.84C270.107 389.563 269.456 389.163 268.912 388.64C268.368 388.117 267.947 387.499 267.648 386.784C267.35 386.069 267.2 385.275 267.2 384.4C267.2 383.525 267.35 382.731 267.648 382.016C267.947 381.301 268.368 380.683 268.912 380.16C269.456 379.637 270.107 379.237 270.864 378.96C271.622 378.683 272.448 378.544 273.344 378.544C274.166 378.544 274.843 378.645 275.376 378.848C275.91 379.051 276.4 379.328 276.848 379.68V382.592C276.603 382.336 276.32 382.096 276 381.872C275.68 381.637 275.318 381.456 274.912 381.328C274.507 381.189 274.038 381.12 273.504 381.12C272.896 381.12 272.336 381.248 271.824 381.504C271.323 381.76 270.918 382.133 270.608 382.624C270.299 383.115 270.144 383.707 270.144 384.4ZM281.283 384.4C281.283 385.061 281.411 385.648 281.667 386.16C281.934 386.661 282.302 387.056 282.771 387.344C283.251 387.632 283.811 387.776 284.451 387.776C285.08 387.776 285.63 387.632 286.099 387.344C286.579 387.056 286.947 386.661 287.203 386.16C287.47 385.648 287.603 385.061 287.603 384.4C287.603 383.739 287.475 383.157 287.219 382.656C286.963 382.144 286.6 381.744 286.131 381.456C285.662 381.168 285.102 381.024 284.451 381.024C283.811 381.024 283.251 381.168 282.771 381.456C282.302 381.744 281.934 382.144 281.667 382.656C281.411 383.157 281.283 383.739 281.283 384.4ZM278.419 384.4C278.419 383.536 278.568 382.747 278.867 382.032C279.176 381.317 279.603 380.699 280.147 380.176C280.691 379.653 281.331 379.253 282.067 378.976C282.803 378.688 283.598 378.544 284.451 378.544C285.315 378.544 286.11 378.688 286.835 378.976C287.571 379.253 288.211 379.653 288.755 380.176C289.299 380.699 289.72 381.317 290.019 382.032C290.318 382.747 290.467 383.536 290.467 384.4C290.467 385.264 290.318 386.059 290.019 386.784C289.731 387.509 289.315 388.139 288.771 388.672C288.238 389.205 287.603 389.621 286.867 389.92C286.131 390.208 285.326 390.352 284.451 390.352C283.566 390.352 282.755 390.208 282.019 389.92C281.283 389.621 280.643 389.205 280.099 388.672C279.566 388.139 279.15 387.509 278.851 386.784C278.563 386.059 278.419 385.264 278.419 384.4ZM292.12 378.8H294.824V386.128C294.824 386.693 294.973 387.152 295.272 387.504C295.57 387.856 296.018 388.032 296.616 388.032C297.224 388.032 297.677 387.856 297.976 387.504C298.274 387.152 298.424 386.693 298.424 386.128V378.8H301.128V386.32C301.128 387.024 301.01 387.637 300.776 388.16C300.552 388.683 300.232 389.115 299.816 389.456C299.41 389.787 298.93 390.037 298.376 390.208C297.832 390.379 297.245 390.464 296.616 390.464C295.986 390.464 295.4 390.379 294.856 390.208C294.312 390.037 293.832 389.787 293.416 389.456C293.01 389.115 292.69 388.683 292.456 388.16C292.232 387.637 292.12 387.024 292.12 386.32V378.8ZM306.218 384.928H309.018L312.522 390H309.354L306.218 384.928ZM303.418 378.8H306.122V390H303.418V378.8ZM305.114 381.088V378.8H307.498C308.458 378.8 309.258 378.955 309.898 379.264C310.538 379.573 311.024 380.005 311.354 380.56C311.685 381.104 311.85 381.739 311.85 382.464C311.85 383.179 311.685 383.813 311.354 384.368C311.024 384.912 310.538 385.339 309.898 385.648C309.258 385.957 308.458 386.112 307.498 386.112H305.114V384.016H307.306C307.669 384.016 307.978 383.963 308.234 383.856C308.501 383.739 308.704 383.573 308.842 383.36C308.981 383.136 309.05 382.869 309.05 382.56C309.05 382.251 308.981 381.989 308.842 381.776C308.704 381.552 308.501 381.381 308.234 381.264C307.978 381.147 307.669 381.088 307.306 381.088H305.114ZM312.658 381.216V378.8H321.522V381.216H318.434V390H315.73V381.216H312.658Z" fill="#FDFBFB"/>
<path d="M206.055 216.005C203.533 215.88 201.602 218.343 199.589 220.981C197.125 224.216 193.634 228.786 193.124 235.919C192.914 238.805 192.421 245.847 197.165 250.849C197.965 251.695 201.23 255.137 206.055 254.996C210.823 254.855 213.853 251.297 214.944 250.019C218.694 245.632 218.904 240.448 218.985 238.407C219.203 232.701 217.045 228.496 215.752 225.966C215.34 225.161 214.055 222.739 211.711 220.16C209.538 217.763 208.034 216.104 206.055 216.005ZM210.16 239.452C210.16 239.651 210.144 239.776 210.128 240.025C210.071 240.829 209.966 241.526 209.82 242.065C209.845 242.347 209.796 242.629 209.659 242.861C209.61 243.027 209.529 243.176 209.416 243.301C209.327 243.541 209.166 243.74 208.94 243.865C208.762 244.139 208.463 244.329 208.034 244.329C208.01 244.329 207.994 244.321 207.97 244.321C207.824 244.396 207.647 244.446 207.436 244.446C207.436 244.446 207.436 244.446 207.428 244.446C207.267 244.545 207.073 244.611 206.83 244.611C206.806 244.611 206.782 244.611 206.75 244.611C206.661 244.628 206.572 244.645 206.467 244.645C206.313 244.645 206.176 244.611 206.055 244.57C206.006 244.57 205.966 244.595 205.909 244.595C205.796 244.595 205.626 244.669 205.529 244.645C205.513 244.645 205.553 244.562 205.529 244.57C205.368 244.611 205.206 244.62 205.044 244.57C205.004 244.57 204.955 244.562 204.915 244.553C204.883 244.553 204.85 244.553 204.81 244.553C204.745 244.553 204.689 244.545 204.632 244.537C204.551 244.553 204.479 244.578 204.39 244.578C204.196 244.578 204.026 244.528 203.881 244.454C203.856 244.454 203.832 244.454 203.808 244.454C203.622 244.454 203.46 244.421 203.315 244.354C203.275 244.354 203.242 244.338 203.202 244.329C202.879 244.305 202.628 244.172 202.442 243.981C202.272 243.857 202.151 243.691 202.062 243.508C201.909 243.326 201.788 243.11 201.747 242.87C201.521 242.405 201.295 241.758 201.214 240.896V237.578C201.262 236.085 201.48 234.053 202.224 231.764C202.782 230.038 203.485 228.637 204.123 227.567C204.147 227.525 204.163 227.492 204.188 227.459C204.333 227.086 204.665 226.795 205.182 226.787C205.279 226.762 205.392 226.737 205.513 226.737C205.602 226.737 205.683 226.746 205.764 226.762C205.788 226.762 205.804 226.746 205.828 226.746C205.861 226.746 205.893 226.762 205.925 226.762C205.949 226.762 205.974 226.762 206.006 226.762C206.41 226.762 206.709 226.928 206.919 227.177C207.065 227.276 207.194 227.409 207.323 227.583C207.647 227.816 207.929 228.272 208.164 228.885C208.317 229.143 208.455 229.466 208.584 229.823C209.109 231.233 209.602 232.958 209.901 234.915C209.901 234.915 210.249 237.213 210.168 239.469L210.16 239.452Z" fill="#FDFBFB"/>
<path d="M190.584 276.184L192.76 269.8H195.976L191.128 281.656L187.512 274.904L183.912 281.656L179.064 269.8H182.264L184.472 276.184L187.512 269.24L190.584 276.184ZM197.397 278.84L197.589 276.776H203.141L203.317 278.84H197.397ZM200.325 273.912L198.757 277.528L198.885 278.12L197.493 281H194.437L200.325 269.096L206.229 281H203.157L201.813 278.232L201.909 277.544L200.325 273.912ZM205.158 272.216V269.8H214.022V272.216H210.934V281H208.23V272.216H205.158ZM217.039 281V278.776H222.687V281H217.039ZM217.039 272.024V269.8H222.687V272.024H217.039ZM217.039 276.2V274.024H222.367V276.2H217.039ZM215.247 269.8H217.839V281H215.247V269.8ZM227.687 275.928H230.487L233.991 281H230.823L227.687 275.928ZM224.887 269.8H227.591V281H224.887V269.8ZM226.583 272.088V269.8H228.967C229.927 269.8 230.727 269.955 231.367 270.264C232.007 270.573 232.492 271.005 232.823 271.56C233.154 272.104 233.319 272.739 233.319 273.464C233.319 274.179 233.154 274.813 232.823 275.368C232.492 275.912 232.007 276.339 231.367 276.648C230.727 276.957 229.927 277.112 228.967 277.112H226.583V275.016H228.775C229.138 275.016 229.447 274.963 229.703 274.856C229.97 274.739 230.172 274.573 230.311 274.36C230.45 274.136 230.519 273.869 230.519 273.56C230.519 273.251 230.45 272.989 230.311 272.776C230.172 272.552 229.97 272.381 229.703 272.264C229.447 272.147 229.138 272.088 228.775 272.088H226.583Z" fill="#FDFBFB"/>
<path d="M261.299 108.265C261.196 106.66 260.279 95.3908 250.389 87.8095C248.798 86.5886 241.674 81.4045 231.779 82.0565C219.476 82.8619 207.906 92.3608 205.467 105.069C203.253 116.594 209.574 125.422 210.601 126.802C211.172 127.576 220.144 139.242 234.987 138.309C246.045 137.612 252.757 130.401 254.24 128.72C255.6 127.173 262.024 119.56 261.299 108.265ZM233.229 126.962C223.513 126.962 216.325 119.055 215.902 109.703C215.485 100.383 224.168 92.4439 233.229 92.4439C242.945 92.4439 250.133 100.351 250.556 109.703C250.973 119.023 242.29 126.962 233.229 126.962Z" fill="#FDFBFB"/>
<path d="M196.488 149.4C196.488 150.083 196.643 150.675 196.952 151.176C197.261 151.667 197.667 152.04 198.168 152.296C198.68 152.552 199.24 152.68 199.848 152.68C200.381 152.68 200.851 152.611 201.256 152.472C201.661 152.333 202.024 152.152 202.344 151.928C202.664 151.704 202.947 151.464 203.192 151.208V154.12C202.744 154.472 202.253 154.749 201.72 154.952C201.187 155.155 200.509 155.256 199.688 155.256C198.792 155.256 197.965 155.117 197.208 154.84C196.451 154.563 195.8 154.163 195.256 153.64C194.712 153.117 194.291 152.499 193.992 151.784C193.693 151.069 193.544 150.275 193.544 149.4C193.544 148.525 193.693 147.731 193.992 147.016C194.291 146.301 194.712 145.683 195.256 145.16C195.8 144.637 196.451 144.237 197.208 143.96C197.965 143.683 198.792 143.544 199.688 143.544C200.509 143.544 201.187 143.645 201.72 143.848C202.253 144.051 202.744 144.328 203.192 144.68V147.592C202.947 147.336 202.664 147.096 202.344 146.872C202.024 146.637 201.661 146.456 201.256 146.328C200.851 146.189 200.381 146.12 199.848 146.12C199.24 146.12 198.68 146.248 198.168 146.504C197.667 146.76 197.261 147.133 196.952 147.624C196.643 148.115 196.488 148.707 196.488 149.4ZM206.928 152.84L207.12 150.776H212.672L212.848 152.84H206.928ZM209.856 147.912L208.288 151.528L208.416 152.12L207.024 155H203.968L209.856 143.096L215.76 155H212.688L211.344 152.232L211.44 151.544L209.856 147.912ZM219.734 149.928H222.534L226.038 155H222.87L219.734 149.928ZM216.934 143.8H219.638V155H216.934V143.8ZM218.63 146.088V143.8H221.014C221.974 143.8 222.774 143.955 223.414 144.264C224.054 144.573 224.539 145.005 224.87 145.56C225.201 146.104 225.366 146.739 225.366 147.464C225.366 148.179 225.201 148.813 224.87 149.368C224.539 149.912 224.054 150.339 223.414 150.648C222.774 150.957 221.974 151.112 221.014 151.112H218.63V149.016H220.822C221.185 149.016 221.494 148.963 221.75 148.856C222.017 148.739 222.219 148.573 222.358 148.36C222.497 148.136 222.566 147.869 222.566 147.56C222.566 147.251 222.497 146.989 222.358 146.776C222.219 146.552 222.017 146.381 221.75 146.264C221.494 146.147 221.185 146.088 220.822 146.088H218.63ZM229.517 149.4C229.517 150.061 229.645 150.648 229.901 151.16C230.168 151.661 230.536 152.056 231.005 152.344C231.485 152.632 232.045 152.776 232.685 152.776C233.315 152.776 233.864 152.632 234.333 152.344C234.813 152.056 235.181 151.661 235.437 151.16C235.704 150.648 235.837 150.061 235.837 149.4C235.837 148.739 235.709 148.157 235.453 147.656C235.197 147.144 234.835 146.744 234.365 146.456C233.896 146.168 233.336 146.024 232.685 146.024C232.045 146.024 231.485 146.168 231.005 146.456C230.536 146.744 230.168 147.144 229.901 147.656C229.645 148.157 229.517 148.739 229.517 149.4ZM226.653 149.4C226.653 148.536 226.803 147.747 227.101 147.032C227.411 146.317 227.837 145.699 228.381 145.176C228.925 144.653 229.565 144.253 230.301 143.976C231.037 143.688 231.832 143.544 232.685 143.544C233.549 143.544 234.344 143.688 235.069 143.976C235.805 144.253 236.445 144.653 236.989 145.176C237.533 145.699 237.955 146.317 238.253 147.032C238.552 147.747 238.701 148.536 238.701 149.4C238.701 150.264 238.552 151.059 238.253 151.784C237.965 152.509 237.549 153.139 237.005 153.672C236.472 154.205 235.837 154.621 235.101 154.92C234.365 155.208 233.56 155.352 232.685 155.352C231.8 155.352 230.989 155.208 230.253 154.92C229.517 154.621 228.877 154.205 228.333 153.672C227.8 153.139 227.384 152.509 227.085 151.784C226.797 151.059 226.653 150.264 226.653 149.4ZM240.354 143.8H243.058V151.128C243.058 151.693 243.207 152.152 243.506 152.504C243.805 152.856 244.253 153.032 244.85 153.032C245.458 153.032 245.911 152.856 246.21 152.504C246.509 152.152 246.658 151.693 246.658 151.128V143.8H249.362V151.32C249.362 152.024 249.245 152.637 249.01 153.16C248.786 153.683 248.466 154.115 248.05 154.456C247.645 154.787 247.165 155.037 246.61 155.208C246.066 155.379 245.479 155.464 244.85 155.464C244.221 155.464 243.634 155.379 243.09 155.208C242.546 155.037 242.066 154.787 241.65 154.456C241.245 154.115 240.925 153.683 240.69 153.16C240.466 152.637 240.354 152.024 240.354 151.32V143.8ZM252.885 151.064C253.109 151.469 253.359 151.821 253.637 152.12C253.925 152.419 254.234 152.648 254.565 152.808C254.906 152.968 255.263 153.048 255.637 153.048C256.031 153.048 256.357 152.952 256.613 152.76C256.869 152.557 256.997 152.285 256.997 151.944C256.997 151.656 256.922 151.427 256.773 151.256C256.623 151.075 256.383 150.904 256.053 150.744C255.722 150.584 255.285 150.403 254.741 150.2C254.474 150.104 254.165 149.971 253.813 149.8C253.471 149.629 253.146 149.411 252.837 149.144C252.527 148.867 252.271 148.536 252.069 148.152C251.866 147.757 251.765 147.283 251.765 146.728C251.765 146.067 251.935 145.496 252.277 145.016C252.629 144.536 253.098 144.173 253.685 143.928C254.282 143.672 254.943 143.544 255.669 143.544C256.415 143.544 257.061 143.667 257.605 143.912C258.159 144.157 258.618 144.467 258.981 144.84C259.343 145.213 259.621 145.592 259.813 145.976L257.749 147.128C257.589 146.861 257.402 146.632 257.189 146.44C256.986 146.237 256.757 146.083 256.501 145.976C256.255 145.859 255.989 145.8 255.701 145.8C255.317 145.8 255.023 145.885 254.821 146.056C254.618 146.216 254.517 146.419 254.517 146.664C254.517 146.92 254.613 147.144 254.805 147.336C255.007 147.528 255.29 147.704 255.653 147.864C256.026 148.024 256.474 148.195 256.997 148.376C257.391 148.525 257.759 148.701 258.101 148.904C258.442 149.096 258.741 149.331 258.997 149.608C259.263 149.885 259.471 150.205 259.621 150.568C259.77 150.931 259.845 151.347 259.845 151.816C259.845 152.381 259.727 152.888 259.493 153.336C259.269 153.773 258.959 154.141 258.565 154.44C258.181 154.739 257.738 154.963 257.237 155.112C256.746 155.272 256.239 155.352 255.717 155.352C254.991 155.352 254.314 155.224 253.685 154.968C253.066 154.701 252.527 154.344 252.069 153.896C251.61 153.448 251.253 152.957 250.997 152.424L252.885 151.064ZM263.445 155V152.776H269.093V155H263.445ZM263.445 146.024V143.8H269.093V146.024H263.445ZM263.445 150.2V148.024H268.773V150.2H263.445ZM261.653 143.8H264.245V155H261.653V143.8ZM271.293 143.8H273.997V152.68H278.493V155H271.293V143.8Z" fill="#FDFBFB"/>
<g clip-path="url(#clip3_355_1125)">
<path d="M103.254 192.322C94.8653 180.646 80.9693 180.425 79.3836 180.425C68.4885 180.442 58.9488 186.492 53.8082 194.871C49 202.732 49.2898 210.626 49.5456 213.567C69.1534 213.286 88.7613 212.997 108.369 212.717C108.65 210.337 109.477 200.981 103.254 192.322ZM61.6854 206.037C61.6854 205.91 61.6939 205.782 61.7025 205.655C61.6769 205.655 61.7621 205.816 61.8815 206.02C61.7621 206.02 61.6854 206.029 61.6854 206.029V206.037ZM96.9369 205.111C96.9454 205.281 96.9625 205.46 96.9625 205.63C96.9625 205.63 96.8005 206.088 96.6556 206.42C96.3828 206.454 95.6581 206.488 94.6692 206.505C94.5584 206.522 94.4476 206.53 94.3197 206.53C94.2856 206.53 94.2429 206.522 94.2088 206.513C91.6087 206.564 87.6701 206.59 85.5217 206.598C84.7886 206.632 83.2796 206.675 82.9386 206.683C80.023 206.751 77.1074 206.811 74.1918 206.811C71.9071 206.811 75.8968 206.7 76.4851 206.683C78.9829 206.624 81.4893 206.581 83.9957 206.564C83.9957 206.53 83.9957 206.496 83.9957 206.462C82.751 206.462 81.6257 206.462 81.4296 206.462C81.4126 206.462 81.0631 206.462 80.5516 206.462C79.9633 206.471 79.3666 206.488 78.7783 206.496C77.2694 206.522 75.7604 206.547 74.26 206.556C74.5499 206.556 72.393 206.53 72.3845 206.547C72.41 206.488 72.4271 206.42 72.4527 206.36C70.7562 206.369 68.7442 206.36 68.4714 206.36C68.4373 206.36 66.8261 206.36 65.2319 206.36C65.2574 206.343 65.283 206.326 65.3086 206.309C64.26 206.318 63.4416 206.318 63.4416 206.301C63.4416 206.301 63.4416 206.284 63.4416 206.275C62.9556 206.275 62.4527 206.275 62.4527 206.267C62.4612 206.173 62.4782 206.088 62.4953 205.995C62.3845 205.995 62.2822 205.995 62.1969 206.003C62.0094 205.417 61.728 204.712 61.7792 204.465C61.3188 202.188 62.4868 198.525 64.2685 196.333C64.5925 195.509 65.1125 194.778 65.786 194.183C66.1185 193.631 66.5447 193.155 67.0733 192.772C67.5678 192.271 68.1389 191.905 68.7954 191.65C69.52 190.937 70.4066 190.367 71.3444 190.07C72.7596 189.62 74.26 189.356 75.7519 189.186C76.0418 189.118 76.3401 189.033 76.6556 189.008C82.0179 188.464 86.4424 188.999 87.0648 189.772L88.7698 190.622C90.1168 191.013 90.1423 191.617 91.3785 192.458C92.41 193.155 93.2796 194.021 93.8934 194.999C96.0162 196.724 97.4314 201.245 96.8516 204.083C96.8857 204.406 96.9198 204.72 96.9369 205.043C96.971 205.043 97.0051 205.043 97.0392 205.043C98.1986 205.043 97.7468 205.069 96.9369 205.103V205.111Z" fill="white" stroke="#FDFBFB" stroke-miterlimit="10"/>
<path d="M62.2651 206.284C62.2651 206.284 62.2822 206.284 62.2907 206.284C62.2822 206.284 62.2737 206.284 62.2651 206.284Z" fill="white" stroke="white" stroke-miterlimit="10"/>
<path d="M96.6982 206.403C96.7409 206.335 96.7664 206.309 96.7664 206.377C96.7664 206.377 96.7409 206.394 96.6982 206.403Z" fill="white" stroke="white" stroke-miterlimit="10"/>
</g>
<path d="M37.064 233.216V230.8H45.928V233.216H42.84V242H40.136V233.216H37.064ZM47.9048 237.312V234.88H56.3848V237.312H47.9048ZM54.6728 230.8H57.3768V242H54.6728V230.8ZM47.1528 230.8H49.8568V242H47.1528V230.8ZM61.5229 242V239.776H67.1709V242H61.5229ZM61.5229 233.024V230.8H67.1709V233.024H61.5229ZM61.5229 237.2V235.024H66.8509V237.2H61.5229ZM59.7309 230.8H62.3229V242H59.7309V230.8ZM84.5684 237.184L86.7444 230.8H89.9604L85.1124 242.656L81.4964 235.904L77.8964 242.656L73.0484 230.8H76.2484L78.4564 237.184L81.4964 230.24L84.5684 237.184ZM91.2153 230.8H93.9673V242H91.2153V230.8ZM95.2203 233.216V230.8H104.084V233.216H100.996V242H98.2923V233.216H95.2203ZM106.816 236.4C106.816 237.083 106.971 237.675 107.28 238.176C107.589 238.667 107.995 239.04 108.496 239.296C109.008 239.552 109.568 239.68 110.176 239.68C110.709 239.68 111.179 239.611 111.584 239.472C111.989 239.333 112.352 239.152 112.672 238.928C112.992 238.704 113.275 238.464 113.52 238.208V241.12C113.072 241.472 112.581 241.749 112.048 241.952C111.515 242.155 110.837 242.256 110.016 242.256C109.12 242.256 108.293 242.117 107.536 241.84C106.779 241.563 106.128 241.163 105.584 240.64C105.04 240.117 104.619 239.499 104.32 238.784C104.021 238.069 103.872 237.275 103.872 236.4C103.872 235.525 104.021 234.731 104.32 234.016C104.619 233.301 105.04 232.683 105.584 232.16C106.128 231.637 106.779 231.237 107.536 230.96C108.293 230.683 109.12 230.544 110.016 230.544C110.837 230.544 111.515 230.645 112.048 230.848C112.581 231.051 113.072 231.328 113.52 231.68V234.592C113.275 234.336 112.992 234.096 112.672 233.872C112.352 233.637 111.989 233.456 111.584 233.328C111.179 233.189 110.709 233.12 110.176 233.12C109.568 233.12 109.008 233.248 108.496 233.504C107.995 233.76 107.589 234.133 107.28 234.624C106.971 235.115 106.816 235.707 106.816 236.4ZM116.483 237.312V234.88H124.963V237.312H116.483ZM123.251 230.8H125.955V242H123.251V230.8ZM115.731 230.8H118.435V242H115.731V230.8ZM64.4724 259.4C64.4724 260.083 64.627 260.675 64.9364 261.176C65.2457 261.667 65.651 262.04 66.1524 262.296C66.6644 262.552 67.2244 262.68 67.8324 262.68C68.3657 262.68 68.835 262.611 69.2404 262.472C69.6457 262.333 70.0084 262.152 70.3284 261.928C70.6484 261.704 70.931 261.464 71.1764 261.208V264.12C70.7284 264.472 70.2377 264.749 69.7044 264.952C69.171 265.155 68.4937 265.256 67.6724 265.256C66.7764 265.256 65.9497 265.117 65.1924 264.84C64.435 264.563 63.7844 264.163 63.2404 263.64C62.6964 263.117 62.275 262.499 61.9764 261.784C61.6777 261.069 61.5284 260.275 61.5284 259.4C61.5284 258.525 61.6777 257.731 61.9764 257.016C62.275 256.301 62.6964 255.683 63.2404 255.16C63.7844 254.637 64.435 254.237 65.1924 253.96C65.9497 253.683 66.7764 253.544 67.6724 253.544C68.4937 253.544 69.171 253.645 69.7044 253.848C70.2377 254.051 70.7284 254.328 71.1764 254.68V257.592C70.931 257.336 70.6484 257.096 70.3284 256.872C70.0084 256.637 69.6457 256.456 69.2404 256.328C68.835 256.189 68.3657 256.12 67.8324 256.12C67.2244 256.12 66.6644 256.248 66.1524 256.504C65.651 256.76 65.2457 257.133 64.9364 257.624C64.627 258.115 64.4724 258.707 64.4724 259.4ZM74.9128 262.84L75.1048 260.776H80.6568L80.8328 262.84H74.9128ZM77.8408 257.912L76.2728 261.528L76.4008 262.12L75.0088 265H71.9527L77.8408 253.096L83.7448 265H80.6728L79.3288 262.232L79.4248 261.544L77.8408 257.912ZM88.0126 260.488L90.7486 253.8H93.9166L88.0126 265.704L82.1246 253.8H85.2766L88.0126 260.488ZM96.8823 265V262.776H102.53V265H96.8823ZM96.8823 256.024V253.8H102.53V256.024H96.8823ZM96.8823 260.2V258.024H102.21V260.2H96.8823ZM95.0903 253.8H97.6823V265H95.0903V253.8Z" fill="#FDFBFB"/>
<path d="M501 192.685L468.712 137L437 192.685L449.108 199L468.712 164.556L488.892 199L501 192.685Z" fill="#FDFBFB"/>
<path d="M432.064 207.216V204.8H440.928V207.216H437.84V216H435.136V207.216H432.064ZM444.953 210.928H447.753L451.257 216H448.089L444.953 210.928ZM442.153 204.8H444.857V216H442.153V204.8ZM443.849 207.088V204.8H446.233C447.193 204.8 447.993 204.955 448.633 205.264C449.273 205.573 449.758 206.005 450.089 206.56C450.419 207.104 450.585 207.739 450.585 208.464C450.585 209.179 450.419 209.813 450.089 210.368C449.758 210.912 449.273 211.339 448.633 211.648C447.993 211.957 447.193 212.112 446.233 212.112H443.849V210.016H446.041C446.403 210.016 446.713 209.963 446.969 209.856C447.235 209.739 447.438 209.573 447.577 209.36C447.715 209.136 447.785 208.869 447.785 208.56C447.785 208.251 447.715 207.989 447.577 207.776C447.438 207.552 447.235 207.381 446.969 207.264C446.713 207.147 446.403 207.088 446.041 207.088H443.849ZM452.512 204.8H455.264V216H452.512V204.8ZM459.653 210.432V209.248H461.461C461.77 209.248 462.032 209.2 462.245 209.104C462.469 209.008 462.64 208.875 462.757 208.704C462.874 208.523 462.933 208.304 462.933 208.048C462.933 207.664 462.805 207.376 462.549 207.184C462.293 206.992 461.93 206.896 461.461 206.896H460.341V213.904H461.717C462.069 213.904 462.384 213.861 462.661 213.776C462.938 213.68 463.157 213.531 463.317 213.328C463.488 213.115 463.573 212.827 463.573 212.464C463.573 212.229 463.525 212.027 463.429 211.856C463.333 211.685 463.2 211.547 463.029 211.44C462.858 211.333 462.661 211.259 462.437 211.216C462.224 211.163 461.984 211.136 461.717 211.136H459.653V209.664H462.021C462.565 209.664 463.093 209.723 463.605 209.84C464.117 209.957 464.581 210.149 464.997 210.416C465.413 210.672 465.744 211.003 465.989 211.408C466.245 211.803 466.373 212.283 466.373 212.848C466.373 213.595 466.192 214.197 465.829 214.656C465.477 215.115 464.976 215.456 464.325 215.68C463.674 215.893 462.906 216 462.021 216H457.637V204.8H461.749C462.528 204.8 463.21 204.907 463.797 205.12C464.394 205.323 464.864 205.637 465.205 206.064C465.557 206.48 465.733 207.008 465.733 207.648C465.733 208.235 465.557 208.736 465.205 209.152C464.864 209.568 464.394 209.888 463.797 210.112C463.21 210.325 462.528 210.432 461.749 210.432H459.653ZM468.182 204.8H470.886V212.128C470.886 212.693 471.035 213.152 471.334 213.504C471.633 213.856 472.081 214.032 472.678 214.032C473.286 214.032 473.739 213.856 474.038 213.504C474.337 213.152 474.486 212.693 474.486 212.128V204.8H477.19V212.32C477.19 213.024 477.073 213.637 476.838 214.16C476.614 214.683 476.294 215.115 475.878 215.456C475.473 215.787 474.993 216.037 474.438 216.208C473.894 216.379 473.307 216.464 472.678 216.464C472.049 216.464 471.462 216.379 470.918 216.208C470.374 216.037 469.894 215.787 469.478 215.456C469.073 215.115 468.753 214.683 468.518 214.16C468.294 213.637 468.182 213.024 468.182 212.32V204.8ZM487.209 204.8H489.817V216.56L482.073 209.696V216H479.481V204.24L487.209 211.104V204.8ZM493.976 216V213.776H499.624V216H493.976ZM493.976 207.024V204.8H499.624V207.024H493.976ZM493.976 211.2V209.024H499.304V211.2H493.976ZM492.184 204.8H494.776V216H492.184V204.8ZM509.553 204.8H512.161V216.56L504.417 209.696V216H501.825V204.24L509.553 211.104V204.8Z" fill="#FDFBFB"/>
<path d="M112 103.583L79.2072 47L47 103.583L59.2973 110L79.2072 75L99.7027 110L112 103.583Z" fill="#FDFBFB"/>
<path d="M45.064 121.288L44.392 127H41.544L43.352 115.24L48.12 122.072L52.904 115.24L54.712 127H51.864L51.192 121.288L48.12 125.96L45.064 121.288ZM58.194 124.84L58.386 122.776H63.938L64.114 124.84H58.194ZM61.122 119.912L59.554 123.528L59.682 124.12L58.29 127H55.234L61.122 115.096L67.026 127H63.954L62.61 124.232L62.706 123.544L61.122 119.912ZM75.9276 115.8H78.5356V127.56L70.7916 120.696V127H68.1996V115.24L75.9276 122.104V115.8ZM82.6948 127V124.776H88.3428V127H82.6948ZM82.6948 118.024V115.8H88.3428V118.024H82.6948ZM82.6948 122.2V120.024H88.0228V122.2H82.6948ZM80.9028 115.8H83.4948V127H80.9028V115.8ZM96.0954 122.952V120.872H101.759C101.813 121.768 101.722 122.605 101.487 123.384C101.253 124.163 100.89 124.851 100.399 125.448C99.9087 126.045 99.2954 126.515 98.5594 126.856C97.8234 127.187 96.9807 127.352 96.0314 127.352C95.1354 127.352 94.314 127.213 93.5674 126.936C92.8207 126.648 92.1754 126.243 91.6314 125.72C91.0874 125.187 90.6607 124.557 90.3514 123.832C90.0527 123.096 89.9034 122.285 89.9034 121.4C89.9034 120.515 90.058 119.715 90.3674 119C90.6767 118.275 91.114 117.656 91.6794 117.144C92.2447 116.632 92.906 116.237 93.6634 115.96C94.4207 115.683 95.242 115.544 96.1274 115.544C96.9167 115.544 97.626 115.656 98.2554 115.88C98.8847 116.104 99.4394 116.419 99.9194 116.824C100.41 117.219 100.831 117.677 101.183 118.2L98.7834 119.448C98.5274 119 98.1807 118.632 97.7434 118.344C97.3167 118.045 96.778 117.896 96.1274 117.896C95.5087 117.896 94.938 118.035 94.4154 118.312C93.9034 118.589 93.4927 118.989 93.1834 119.512C92.8847 120.024 92.7354 120.653 92.7354 121.4C92.7354 122.136 92.8794 122.776 93.1674 123.32C93.466 123.853 93.866 124.269 94.3674 124.568C94.8794 124.856 95.466 125 96.1274 125C96.5327 125 96.9007 124.952 97.2314 124.856C97.562 124.749 97.8447 124.605 98.0794 124.424C98.314 124.232 98.5114 124.013 98.6714 123.768C98.842 123.512 98.9754 123.24 99.0714 122.952H96.0954ZM105.367 127V124.776H111.015V127H105.367ZM105.367 118.024V115.8H111.015V118.024H105.367ZM105.367 122.2V120.024H110.695V122.2H105.367ZM103.575 115.8H106.167V127H103.575V115.8ZM120.943 115.8H123.551V127.56L115.807 120.696V127H113.215V115.24L120.943 122.104V115.8Z" fill="#FDFBFB"/>
<path d="M58.9662 623V620.776H64.6142V623H58.9662ZM58.9662 614.024V611.8H64.6142V614.024H58.9662ZM58.9662 618.2V616.024H64.2942V618.2H58.9662ZM57.1742 611.8H59.7662V623H57.1742V611.8ZM74.5429 611.8H77.1509V623.56L69.4069 616.696V623H66.8149V611.24L74.5429 618.104V611.8ZM78.398 614.216V611.8H87.262V614.216H84.174V623H81.47V614.216H78.398ZM91.2867 617.928H94.0867L97.5907 623H94.4227L91.2867 617.928ZM88.4867 611.8H91.1907V623H88.4867V611.8ZM90.1827 614.088V611.8H92.5667C93.5267 611.8 94.3267 611.955 94.9667 612.264C95.6067 612.573 96.0921 613.005 96.4227 613.56C96.7534 614.104 96.9187 614.739 96.9187 615.464C96.9187 616.179 96.7534 616.813 96.4227 617.368C96.0921 617.912 95.6067 618.339 94.9667 618.648C94.3267 618.957 93.5267 619.112 92.5667 619.112H90.1827V617.016H92.3747C92.7374 617.016 93.0467 616.963 93.3027 616.856C93.5694 616.739 93.7721 616.573 93.9107 616.36C94.0494 616.136 94.1187 615.869 94.1187 615.56C94.1187 615.251 94.0494 614.989 93.9107 614.776C93.7721 614.552 93.5694 614.381 93.3027 614.264C93.0467 614.147 92.7374 614.088 92.3747 614.088H90.1827ZM100.606 620.84L100.798 618.776H106.35L106.526 620.84H100.606ZM103.534 615.912L101.966 619.528L102.094 620.12L100.702 623H97.6461L103.534 611.096L109.438 623H106.366L105.022 620.232L105.118 619.544L103.534 615.912ZM118.34 611.8H120.948V623.56L113.204 616.696V623H110.612V611.24L118.34 618.104V611.8ZM125.619 617.4C125.619 618.083 125.774 618.675 126.083 619.176C126.392 619.667 126.798 620.04 127.299 620.296C127.811 620.552 128.371 620.68 128.979 620.68C129.512 620.68 129.982 620.611 130.387 620.472C130.792 620.333 131.155 620.152 131.475 619.928C131.795 619.704 132.078 619.464 132.323 619.208V622.12C131.875 622.472 131.384 622.749 130.851 622.952C130.318 623.155 129.64 623.256 128.819 623.256C127.923 623.256 127.096 623.117 126.339 622.84C125.582 622.563 124.931 622.163 124.387 621.64C123.843 621.117 123.422 620.499 123.123 619.784C122.824 619.069 122.675 618.275 122.675 617.4C122.675 616.525 122.824 615.731 123.123 615.016C123.422 614.301 123.843 613.683 124.387 613.16C124.931 612.637 125.582 612.237 126.339 611.96C127.096 611.683 127.923 611.544 128.819 611.544C129.64 611.544 130.318 611.645 130.851 611.848C131.384 612.051 131.875 612.328 132.323 612.68V615.592C132.078 615.336 131.795 615.096 131.475 614.872C131.155 614.637 130.792 614.456 130.387 614.328C129.982 614.189 129.512 614.12 128.979 614.12C128.371 614.12 127.811 614.248 127.299 614.504C126.798 614.76 126.392 615.133 126.083 615.624C125.774 616.115 125.619 616.707 125.619 617.4ZM136.326 623V620.776H141.974V623H136.326ZM136.326 614.024V611.8H141.974V614.024H136.326ZM136.326 618.2V616.024H141.654V618.2H136.326ZM134.534 611.8H137.126V623H134.534V611.8Z" fill="#FDFBFB"/>
</g>
<defs>
<filter id="filter0_d_355_1125" x="362" y="94" width="60" height="189" filterUnits="userSpaceOnUse" color-interpolation-filters="sRGB">
<feFlood flood-opacity="0" result="BackgroundImageFix"/>
<feColorMatrix in="SourceAlpha" type="matrix" values="0 0 0 0 0 0 0 0 0 0 0 0 0 0 0 0 0 0 127 0" result="hardAlpha"/>
<feOffset dy="4"/>
<feGaussianBlur stdDeviation="2"/>
<feComposite in2="hardAlpha" operator="out"/>
<feColorMatrix type="matrix" values="0 0 0 0 0 0 0 0 0 0 0 0 0 0 0 0 0 0 0.25 0"/>
<feBlend mode="normal" in2="BackgroundImageFix" result="effect1_dropShadow_355_1125"/>
<feBlend mode="normal" in="SourceGraphic" in2="effect1_dropShadow_355_1125" result="shape"/>
</filter>
<clipPath id="clip0_355_1125">
<rect width="620" height="654" fill="white"/>
</clipPath>
<clipPath id="clip1_355_1125">
<rect width="56" height="35" fill="white" transform="translate(71 570)"/>
</clipPath>
<clipPath id="clip2_355_1125">
<rect width="66" height="52" fill="white" transform="translate(41 346)"/>
</clipPath>
<clipPath id="clip3_355_1125">
<rect width="60" height="34" fill="white" transform="translate(49 180)"/>
</clipPath>
</defs>
</svg>
